<?xml version="1.0" encoding="UTF-8" standalone="no"?>
<!-- Created with Inkscape (http://www.inkscape.org/) -->

<svg
   xmlns:dc="http://purl.org/dc/elements/1.1/"
   xmlns:cc="http://creativecommons.org/ns#"
   xmlns:rdf="http://www.w3.org/1999/02/22-rdf-syntax-ns#"
   xmlns:svg="http://www.w3.org/2000/svg"
   xmlns="http://www.w3.org/2000/svg"
   xmlns:sodipodi="http://sodipodi.sourceforge.net/DTD/sodipodi-0.dtd"
   xmlns:inkscape="http://www.inkscape.org/namespaces/inkscape"
   width="318.89761"
   height="318.89764"
   id="svg3927"
   version="1.1"
   inkscape:version="0.48.4 r9939"
   sodipodi:docname="heater-mount.svg">
  <defs
     id="defs3929" />
  <sodipodi:namedview
     id="base"
     pagecolor="#ffffff"
     bordercolor="#666666"
     borderopacity="1.0"
     inkscape:pageopacity="0.0"
     inkscape:pageshadow="2"
     inkscape:zoom="2.0127198"
     inkscape:cx="155.06232"
     inkscape:cy="151.07073"
     inkscape:document-units="px"
     inkscape:current-layer="layer1"
     showgrid="false"
     units="cm"
     fit-margin-top="1"
     fit-margin-left="1"
     fit-margin-bottom="1"
     fit-margin-right="1"
     inkscape:window-width="1596"
     inkscape:window-height="876"
     inkscape:window-x="0"
     inkscape:window-y="20"
     inkscape:window-maximized="0" />
  <metadata
     id="metadata3932">
    <rdf:RDF>
      <cc:Work
         rdf:about="">
        <dc:format>image/svg+xml</dc:format>
        <dc:type
           rdf:resource="http://purl.org/dc/dcmitype/StillImage" />
        <dc:title />
      </cc:Work>
    </rdf:RDF>
  </metadata>
  <g
     inkscape:label="Layer 1"
     inkscape:groupmode="layer"
     id="layer1"
     transform="translate(23.727136,23.130318)">
    <rect
       style="fill:none;stroke:#ff0000;stroke-width:0.10034699;stroke-linecap:round;stroke-linejoin:bevel;stroke-miterlimit:4;stroke-opacity:1;stroke-dasharray:none"
       id="rect3935"
       width="247.90607"
       height="247.90623"
       x="11.768651"
       y="12.365308" />
    <path
       sodipodi:type="arc"
       style="fill:none;stroke:#ff0000;stroke-width:0.09159433;stroke-linecap:round;stroke-linejoin:bevel;stroke-miterlimit:4;stroke-opacity:1;stroke-dasharray:none"
       id="path4445"
       sodipodi:cx="154.80588"
       sodipodi:cy="109.63732"
       sodipodi:rx="10.859139"
       sodipodi:ry="10.859139"
       d="m 165.66502,109.63732 a 10.859139,10.859139 0 1 1 -21.71828,0 10.859139,10.859139 0 1 1 21.71828,0 z"
       transform="matrix(1.1360511,0,0,1.1361471,-40.148242,-7.7323117)" />
    <path
       transform="matrix(1.1360511,0,0,1.1361471,-40.145709,31.241568)"
       d="m 165.66502,109.63732 a 10.859139,10.859139 0 1 1 -21.71828,0 10.859139,10.859139 0 1 1 21.71828,0 z"
       sodipodi:ry="10.859139"
       sodipodi:rx="10.859139"
       sodipodi:cy="109.63732"
       sodipodi:cx="154.80588"
       id="path4449"
       style="fill:none;stroke:#ff0000;stroke-width:0.09159433;stroke-linecap:round;stroke-linejoin:bevel;stroke-miterlimit:4;stroke-opacity:1;stroke-dasharray:none"
       sodipodi:type="arc" />
    <path
       style="fill:none;stroke:#ff0000;stroke-width:0.09945872;stroke-linecap:butt;stroke-linejoin:miter;stroke-miterlimit:4;stroke-opacity:1;stroke-dasharray:none"
       d="m 135.65984,129.16989 -123.891405,0"
       id="path4454"
       inkscape:connector-curvature="0" />
    <path
       inkscape:connector-curvature="0"
       id="path4456"
       d="m 135.65889,104.36624 -123.890455,0"
       style="fill:none;stroke:#ff0000;stroke-width:0.10011675;stroke-linecap:butt;stroke-linejoin:miter;stroke-miterlimit:4;stroke-opacity:1;stroke-dasharray:none" />
    <path
       inkscape:connector-curvature="0"
       id="path4464"
       d="m 135.65904,168.14577 -123.890459,0"
       style="fill:none;stroke:#ff0000;stroke-width:0.10011675;stroke-linecap:butt;stroke-linejoin:miter;stroke-miterlimit:4;stroke-opacity:1;stroke-dasharray:none" />
    <path
       style="fill:none;stroke:#ff0000;stroke-width:0.10011675;stroke-linecap:butt;stroke-linejoin:miter;stroke-miterlimit:4;stroke-opacity:1;stroke-dasharray:none"
       d="m 135.65904,143.34262 -123.890459,0"
       id="path4466"
       inkscape:connector-curvature="0" />
    <g
       style="font-size:40px;font-style:normal;font-variant:normal;font-weight:normal;font-stretch:normal;line-height:125%;letter-spacing:0px;word-spacing:0px;fill:#000000;fill-opacity:1;stroke:none;font-family:Source Sans Pro;-inkscape-font-specification:Source Sans Pro"
       id="text4468">
      <path
         d="m 126.99868,243.57586 c -0.0133,-0.30666 -0.0667,-0.54666 -0.16,-0.72 -0.0933,-0.18666 -0.26001,-0.31999 -0.5,-0.4 -0.22667,-0.0933 -0.53334,-0.15332 -0.92,-0.18 -0.37334,-0.0266 -0.86001,-0.04 -1.46,-0.04 -0.10667,1e-5 -0.19334,1e-5 -0.26,0 -0.0667,1e-5 -0.15334,0.007 -0.26,0.02 -0.86667,0.04 -1.59334,0.06 -2.18,0.06 -0.58667,1e-5 -1.06,0.0334 -1.42,0.1 -0.36,0.0533 -0.62,0.16001 -0.78,0.32 -0.16,0.16001 -0.24,0.42668 -0.24,0.8 0,0.33334 0.12,0.58668 0.36,0.76 0.24,0.16001 0.57333,0.24668 1,0.26 0.6,0.0133 1.16666,0.0267 1.7,0.04 0.54666,0.0133 1.05333,0.02 1.52,0.02 0.27999,1e-5 0.56666,1e-5 0.86,0 0.30666,-0.0133 0.59333,-0.02 0.86,-0.02 1.10666,1e-5 2.06666,0.0333 2.88,0.1 0.81332,0.0533 1.47999,0.21334 2,0.48 0.53332,0.26668 0.92665,0.67334 1.18,1.22 0.25332,0.54667 0.37999,1.31334 0.38,2.3 -1e-5,0.69334 -0.0667,1.28 -0.2,1.76 -0.13335,0.48 -0.34668,0.88 -0.64,1.2 -0.28001,0.30667 -0.64001,0.54667 -1.08,0.72 -0.44001,0.17333 -0.96668,0.29333 -1.58,0.36 -0.36001,0.04 -1.05334,0.0867 -2.08,0.14 -1.02667,0.0533 -2.34001,0.08 -3.94,0.08 -1.57334,0 -2.86,-0.0467 -3.86,-0.14 -0.98667,-0.0933 -1.70667,-0.3 -2.16,-0.62 -0.32,-0.22666 -0.56,-0.46666 -0.72,-0.72 -0.14666,-0.26666 -0.25333,-0.54666 -0.32,-0.84 -0.0533,-0.29333 -0.08,-0.60666 -0.08,-0.94 0,-0.34666 0,-0.71999 0,-1.12 l 4.02,0 c 0,0.14667 0,0.30001 0,0.46 0,0.16 0.0333,0.30667 0.1,0.44 0.0667,0.12 0.18667,0.23334 0.36,0.34 0.17333,0.0933 0.44,0.15334 0.8,0.18 0.17333,0.0133 0.49333,0.0267 0.96,0.04 0.48,0.0133 1.08,0.02 1.8,0.02 0.93333,0 1.69333,-0.007 2.28,-0.02 0.59999,-0.0133 1.06666,-0.06 1.4,-0.14 0.33332,-0.08 0.55999,-0.2 0.68,-0.36 0.11999,-0.16 0.17999,-0.39333 0.18,-0.7 -1e-5,-0.29333 -0.06,-0.51999 -0.18,-0.68 -0.12001,-0.17333 -0.29334,-0.29333 -0.52,-0.36 -0.22668,-0.08 -0.50001,-0.12666 -0.82,-0.14 -0.30667,-0.0133 -0.64667,-0.02 -1.02,-0.02 -1.30667,-0.0133 -2.46667,-0.0133 -3.48,0 -1.01334,1e-5 -1.89333,-0.0267 -2.64,-0.08 -0.74667,-0.0533 -1.38,-0.14666 -1.9,-0.28 -0.50667,-0.13333 -0.92,-0.34666 -1.24,-0.64 -0.30666,-0.29333 -0.53333,-0.67999 -0.68,-1.16 -0.13333,-0.47999 -0.2,-1.08666 -0.2,-1.82 0,-0.65332 0.0533,-1.21999 0.16,-1.7 0.12,-0.47999 0.31334,-0.87999 0.58,-1.2 0.26667,-0.33332 0.61334,-0.58665 1.04,-0.76 0.44,-0.18665 0.98,-0.31999 1.62,-0.4 0.42667,-0.0533 1.11333,-0.10665 2.06,-0.16 0.96,-0.0533 2.16,-0.08 3.6,-0.08 0.75999,1e-5 1.43999,0.007 2.04,0.02 0.61332,1e-5 1.15332,0.0267 1.62,0.08 0.47999,0.0533 0.89999,0.13335 1.26,0.24 0.35999,0.0933 0.67332,0.24001 0.94,0.44 0.29332,0.21335 0.51999,0.44001 0.68,0.68 0.17332,0.24001 0.29999,0.50001 0.38,0.78 0.08,0.28001 0.13332,0.58668 0.16,0.92 0.0266,0.32001 0.04,0.67334 0.04,1.06 l -3.98,0"
         style="font-size:20px;font-family:Eurostile MN;-inkscape-font-specification:Eurostile MN;stroke:#0029ff;fill:none;stroke-opacity:1;stroke-width:0.1;stroke-miterlimit:4;stroke-dasharray:none"
         id="path3091" />
      <path
         d="m 152.00837,239.49586 -7.44,13.34 -5.18,0 -7.04,-13.34 4.46,0 5.22,10.06 5.46,-10.06 4.52,0"
         style="font-size:20px;font-family:Eurostile MN;-inkscape-font-specification:Eurostile MN;stroke:#0029ff;fill:none;stroke-opacity:1;stroke-width:0.1;stroke-miterlimit:4;stroke-dasharray:none"
         id="path3093" />
      <path
         d="m 169.16368,249.27586 c -1e-5,0.8 -0.12001,1.44667 -0.36,1.94 -0.22668,0.48 -0.60668,0.84667 -1.14,1.1 -0.52001,0.25333 -1.21334,0.42 -2.08,0.5 -0.86668,0.08 -1.93334,0.12 -3.2,0.12 -0.30667,0 -0.56667,-0.007 -0.78,-0.02 -0.21334,0 -0.47334,-0.007 -0.78,-0.02 -1.14667,-0.04 -2.19334,-0.0533 -3.14,-0.04 -0.93333,0.0133 -1.73333,-0.0733 -2.4,-0.26 -0.66667,-0.18667 -1.18,-0.54666 -1.54,-1.08 -0.36,-0.54666 -0.54,-1.4 -0.54,-2.56 0,-0.14666 0,-0.26666 0,-0.36 0.0133,-0.10666 0.0267,-0.23333 0.04,-0.38 l 3.66,0 c 0,0.60001 0.06,1.06 0.18,1.38 0.13333,0.30667 0.38,0.47334 0.74,0.5 0.32,0.0267 0.86,0.0533 1.62,0.08 0.76,0.0133 1.72666,0.02 2.9,0.02 0.50666,0 0.94666,0 1.32,0 0.38666,-0.0133 0.69999,-0.06 0.94,-0.14 0.25332,-0.08 0.43999,-0.20666 0.56,-0.38 0.13332,-0.17333 0.19999,-0.42666 0.2,-0.76 -10e-6,-0.61333 -0.14001,-1.01333 -0.42,-1.2 -0.26668,-0.18666 -0.70001,-0.27999 -1.3,-0.28 l -0.84,0 -3.2,0 0,-2.54 2.7,0 c 0.47999,1e-5 0.89333,1e-5 1.24,0 0.34666,-0.0133 0.62666,-0.06 0.84,-0.14 0.22666,-0.08 0.39332,-0.19999 0.5,-0.36 0.10666,-0.17332 0.15999,-0.41999 0.16,-0.74 -1e-5,-0.34666 -0.0467,-0.62666 -0.14,-0.84 -0.0933,-0.21332 -0.25334,-0.33999 -0.48,-0.38 -0.50667,-0.0933 -1.02001,-0.15999 -1.54,-0.2 -0.50667,-0.04 -1.01334,-0.06 -1.52,-0.06 -0.8,1e-5 -1.47334,0.007 -2.02,0.02 -0.54667,0.0134 -0.99334,0.0667 -1.34,0.16 -0.33333,0.08 -0.58,0.22668 -0.74,0.44 -0.14667,0.20001 -0.22,0.50001 -0.22,0.9 0,0.0667 0,0.12668 0,0.18 0,0.0533 0.007,0.11334 0.02,0.18 l -3.78,0 c 0.0133,-0.66666 0.0533,-1.24666 0.12,-1.74 0.08,-0.49332 0.22,-0.90665 0.42,-1.24 0.2,-0.34665 0.48,-0.62665 0.84,-0.84 0.37333,-0.21332 0.86,-0.37999 1.46,-0.5 0.6,-0.11999 1.33333,-0.19999 2.2,-0.24 0.86666,-0.04 1.9,-0.06 3.1,-0.06 1.45333,1e-5 2.65333,0.0334 3.6,0.1 0.95999,0.0533 1.71999,0.20668 2.28,0.46 0.57332,0.25335 0.97332,0.63335 1.2,1.14 0.22665,0.50668 0.33999,1.20668 0.34,2.1 -1e-5,0.60001 -0.06,1.06668 -0.18,1.4 -0.10668,0.33334 -0.27335,0.59334 -0.5,0.78 -0.21335,0.18668 -0.48668,0.32667 -0.82,0.42 -0.33334,0.0933 -0.72001,0.20667 -1.16,0.34 0.47999,0.0667 0.90666,0.14667 1.28,0.24 0.37332,0.08 0.68665,0.22667 0.94,0.44 0.25332,0.20001 0.43999,0.49334 0.56,0.88 0.13332,0.37334 0.19999,0.88667 0.2,1.54"
         style="font-size:20px;font-family:Eurostile MN;-inkscape-font-specification:Eurostile MN;stroke:#0029ff;fill:none;stroke-opacity:1;stroke-width:0.1;stroke-miterlimit:4;stroke-dasharray:none"
         id="path3095" />
      <path
         d="m 180.10275,246.27586 6.24,0 c 0.63998,1e-5 1.09332,-0.11999 1.36,-0.36 0.26665,-0.25332 0.39998,-0.71332 0.4,-1.38 -2e-5,-0.63999 -0.12002,-1.09999 -0.36,-1.38 -0.24002,-0.29332 -0.70668,-0.43999 -1.4,-0.44 l -6.24,0 0,3.56 m -4.1,6.56 0,-13.36 10.82,0 c 0.95998,10e-6 1.77998,0.06 2.46,0.18 0.67998,0.10668 1.25331,0.37335 1.72,0.8 0.46665,0.42668 0.77998,0.96668 0.94,1.62 0.15998,0.64001 0.23998,1.42001 0.24,2.34 -2e-5,0.98668 -0.0734,1.80667 -0.22,2.46 -0.14669,0.65334 -0.41335,1.18001 -0.8,1.58 -0.37335,0.38667 -0.88002,0.66667 -1.52,0.84 -0.64002,0.16 -1.45335,0.24 -2.44,0.24 -0.14668,0 -0.28002,0 -0.4,0 -0.10668,-0.0133 -0.23335,-0.02 -0.38,-0.02 l -6.32,0 0,3.32 -4.1,0"
         style="font-size:20px;font-family:Eurostile MN;-inkscape-font-specification:Eurostile MN;stroke:#0029ff;fill:none;stroke-opacity:1;stroke-width:0.1;stroke-miterlimit:4;stroke-dasharray:none"
         id="path3097" />
      <path
         d="m 197.23525,246.17586 c -1e-5,0.84001 0.0333,1.49334 0.1,1.96 0.08,0.45334 0.26666,0.79334 0.56,1.02 0.30666,0.22667 0.75332,0.36667 1.34,0.42 0.59999,0.04 1.41999,0.06 2.46,0.06 0.99999,0 1.77999,-0.0267 2.34,-0.08 0.57332,-0.0533 1.00665,-0.19333 1.3,-0.42 0.29332,-0.23999 0.47332,-0.58666 0.54,-1.04 0.08,-0.46666 0.11998,-1.11333 0.12,-1.94 -2e-5,-0.85332 -0.04,-1.51999 -0.12,-2 -0.0667,-0.47999 -0.24668,-0.83332 -0.54,-1.06 -0.28002,-0.23999 -0.71335,-0.38666 -1.3,-0.44 -0.57335,-0.0533 -1.36668,-0.08 -2.38,-0.08 -1.01335,1e-5 -1.81334,0.0267 -2.4,0.08 -0.58668,0.04 -1.03334,0.18001 -1.34,0.42 -0.29334,0.22668 -0.48001,0.58001 -0.56,1.06 -0.08,0.48001 -0.12001,1.16001 -0.12,2.04 m -3.94,-0.06 c 0,-1.11999 0.0467,-2.05999 0.14,-2.82 0.10666,-0.77332 0.28,-1.40665 0.52,-1.9 0.25333,-0.49332 0.59999,-0.87332 1.04,-1.14 0.43999,-0.26665 0.99333,-0.45999 1.66,-0.58 0.67999,-0.11999 1.49332,-0.18665 2.44,-0.2 0.94666,-0.0267 2.05999,-0.04 3.34,-0.04 1.06665,1e-5 1.99332,0.0267 2.78,0.08 0.79998,0.0533 1.47332,0.16001 2.02,0.32 0.55998,0.16001 1.01331,0.39335 1.36,0.7 0.35998,0.29335 0.63998,0.68668 0.84,1.18 0.19998,0.49335 0.33331,1.10001 0.4,1.82 0.08,0.72001 0.11998,1.58001 0.12,2.58 -2e-5,1.14667 -0.0467,2.11334 -0.14,2.9 -0.08,0.78667 -0.24002,1.43334 -0.48,1.94 -0.24002,0.49334 -0.57335,0.87334 -1,1.14 -0.41335,0.26667 -0.96669,0.46667 -1.66,0.6 -0.68002,0.12 -1.50668,0.18667 -2.48,0.2 -0.97335,0.0133 -2.12668,0.02 -3.46,0.02 -1.09334,0 -2.03334,-0.02 -2.82,-0.06 -0.78667,-0.04 -1.46001,-0.13333 -2.02,-0.28 -0.54667,-0.16 -0.99334,-0.38666 -1.34,-0.68 -0.33334,-0.29333 -0.59334,-0.69333 -0.78,-1.2 -0.18667,-0.50666 -0.31334,-1.13333 -0.38,-1.88 -0.0667,-0.74666 -0.1,-1.64666 -0.1,-2.7"
         style="font-size:20px;font-family:Eurostile MN;-inkscape-font-specification:Eurostile MN;stroke:#0029ff;fill:none;stroke-opacity:1;stroke-width:0.1;stroke-miterlimit:4;stroke-dasharray:none"
         id="path3099" />
      <path
         d="m 234.899,239.49586 -7.44,13.34 -5.18,0 -7.04,-13.34 4.46,0 5.22,10.06 5.46,-10.06 4.52,0"
         style="font-size:20px;font-family:Eurostile MN;-inkscape-font-specification:Eurostile MN;stroke:#0029ff;fill:none;stroke-opacity:1;stroke-width:0.1;stroke-miterlimit:4;stroke-dasharray:none"
         id="path3101" />
      <path
         d="m 239.77431,246.17586 c -1e-5,0.84001 0.0333,1.49334 0.1,1.96 0.08,0.45334 0.26666,0.79334 0.56,1.02 0.30666,0.22667 0.75333,0.36667 1.34,0.42 0.59999,0.04 1.41999,0.06 2.46,0.06 0.99999,0 1.77999,-0.0267 2.34,-0.08 0.57332,-0.0533 1.00665,-0.19333 1.3,-0.42 0.29332,-0.23999 0.47332,-0.58666 0.54,-1.04 0.08,-0.46666 0.11999,-1.11333 0.12,-1.94 -1e-5,-0.85332 -0.04,-1.51999 -0.12,-2 -0.0667,-0.47999 -0.24668,-0.83332 -0.54,-1.06 -0.28001,-0.23999 -0.71335,-0.38666 -1.3,-0.44 -0.57335,-0.0533 -1.36668,-0.08 -2.38,-0.08 -1.01334,1e-5 -1.81334,0.0267 -2.4,0.08 -0.58667,0.04 -1.03334,0.18001 -1.34,0.42 -0.29334,0.22668 -0.48001,0.58001 -0.56,1.06 -0.08,0.48001 -0.12001,1.16001 -0.12,2.04 m -3.94,-0.06 c 0,-1.11999 0.0467,-2.05999 0.14,-2.82 0.10666,-0.77332 0.28,-1.40665 0.52,-1.9 0.25333,-0.49332 0.6,-0.87332 1.04,-1.14 0.44,-0.26665 0.99333,-0.45999 1.66,-0.58 0.67999,-0.11999 1.49333,-0.18665 2.44,-0.2 0.94666,-0.0267 2.05999,-0.04 3.34,-0.04 1.06665,1e-5 1.99332,0.0267 2.78,0.08 0.79999,0.0533 1.47332,0.16001 2.02,0.32 0.55998,0.16001 1.01332,0.39335 1.36,0.7 0.35998,0.29335 0.63998,0.68668 0.84,1.18 0.19998,0.49335 0.33331,1.10001 0.4,1.82 0.08,0.72001 0.11998,1.58001 0.12,2.58 -2e-5,1.14667 -0.0467,2.11334 -0.14,2.9 -0.08,0.78667 -0.24002,1.43334 -0.48,1.94 -0.24002,0.49334 -0.57335,0.87334 -1,1.14 -0.41335,0.26667 -0.96668,0.46667 -1.66,0.6 -0.68001,0.12 -1.50668,0.18667 -2.48,0.2 -0.97335,0.0133 -2.12668,0.02 -3.46,0.02 -1.09334,0 -2.03334,-0.02 -2.82,-0.06 -0.78667,-0.04 -1.46001,-0.13333 -2.02,-0.28 -0.54667,-0.16 -0.99334,-0.38666 -1.34,-0.68 -0.33334,-0.29333 -0.59334,-0.69333 -0.78,-1.2 -0.18667,-0.50666 -0.31334,-1.13333 -0.38,-1.88 -0.0667,-0.74666 -0.1,-1.64666 -0.1,-2.7"
         style="font-size:20px;font-family:Eurostile MN;-inkscape-font-specification:Eurostile MN;stroke:#0029ff;fill:none;stroke-opacity:1;stroke-width:0.1;stroke-miterlimit:4;stroke-dasharray:none"
         id="path3103" />
    </g>
  </g>
</svg>
