<?xml version="1.0" encoding="UTF-8" standalone="no"?>
<!-- Created with Inkscape (http://www.inkscape.org/) -->

<svg
   xmlns:dc="http://purl.org/dc/elements/1.1/"
   xmlns:cc="http://creativecommons.org/ns#"
   xmlns:rdf="http://www.w3.org/1999/02/22-rdf-syntax-ns#"
   xmlns:svg="http://www.w3.org/2000/svg"
   xmlns="http://www.w3.org/2000/svg"
   xmlns:sodipodi="http://sodipodi.sourceforge.net/DTD/sodipodi-0.dtd"
   xmlns:inkscape="http://www.inkscape.org/namespaces/inkscape"
   width="850.39368"
   height="850.39368"
   id="svg3877"
   version="1.1"
   inkscape:version="0.48.4 r9939"
   sodipodi:docname="platform.svg">
  <defs
     id="defs3879" />
  <sodipodi:namedview
     id="base"
     pagecolor="#ffffff"
     bordercolor="#666666"
     borderopacity="1.0"
     inkscape:pageopacity="0.0"
     inkscape:pageshadow="2"
     inkscape:zoom="0.7"
     inkscape:cx="315.56404"
     inkscape:cy="434.66452"
     inkscape:document-units="px"
     inkscape:current-layer="layer1"
     showgrid="false"
     units="mm"
     inkscape:window-width="1596"
     inkscape:window-height="876"
     inkscape:window-x="0"
     inkscape:window-y="20"
     inkscape:window-maximized="0" />
  <metadata
     id="metadata3882">
    <rdf:RDF>
      <cc:Work
         rdf:about="">
        <dc:format>image/svg+xml</dc:format>
        <dc:type
           rdf:resource="http://purl.org/dc/dcmitype/StillImage" />
        <dc:title></dc:title>
      </cc:Work>
    </rdf:RDF>
  </metadata>
  <g
     inkscape:label="Layer 1"
     inkscape:groupmode="layer"
     id="layer1"
     transform="translate(0,-201.96845)">
    <rect
       style="fill:none;stroke:#0029ff;stroke-width:0.94211739;stroke-linecap:round;stroke-linejoin:bevel;stroke-miterlimit:4;stroke-opacity:1;stroke-dasharray:none"
       id="rect3885"
       width="778.58545"
       height="778.58545"
       x="35.904129"
       y="237.87254" />
    <path
       sodipodi:type="arc"
       style="fill:none;stroke:#0029ff;stroke-width:1;stroke-linecap:round;stroke-linejoin:bevel;stroke-miterlimit:4;stroke-opacity:1;stroke-dasharray:none"
       id="path4395"
       sodipodi:cx="265"
       sodipodi:cy="403.96512"
       sodipodi:rx="25"
       sodipodi:ry="25"
       d="m 290,403.96512 a 25,25 0 1 1 -50,0 25,25 0 1 1 50,0 z"
       transform="matrix(0.83371932,0,0,0.83371931,-128.80964,623.44262)" />
    <path
       transform="matrix(0.83371932,0,0,0.83371931,537.3321,623.44262)"
       d="m 290,403.96512 a 25,25 0 1 1 -50,0 25,25 0 1 1 50,0 z"
       sodipodi:ry="25"
       sodipodi:rx="25"
       sodipodi:cy="403.96512"
       sodipodi:cx="265"
       id="path4397"
       style="fill:none;stroke:#0029ff;stroke-width:1;stroke-linecap:round;stroke-linejoin:bevel;stroke-miterlimit:4;stroke-opacity:1;stroke-dasharray:none"
       sodipodi:type="arc" />
    <path
       transform="matrix(0.83371932,0,0,0.83371931,-128.80964,-42.699109)"
       d="m 290,403.96512 a 25,25 0 1 1 -50,0 25,25 0 1 1 50,0 z"
       sodipodi:ry="25"
       sodipodi:rx="25"
       sodipodi:cy="403.96512"
       sodipodi:cx="265"
       id="path4399"
       style="fill:none;stroke:#0029ff;stroke-width:1;stroke-linecap:round;stroke-linejoin:bevel;stroke-miterlimit:4;stroke-opacity:1;stroke-dasharray:none"
       sodipodi:type="arc" />
    <path
       sodipodi:type="arc"
       style="fill:none;stroke:#0029ff;stroke-width:1;stroke-linecap:round;stroke-linejoin:bevel;stroke-miterlimit:4;stroke-opacity:1;stroke-dasharray:none"
       id="path4401"
       sodipodi:cx="265"
       sodipodi:cy="403.96512"
       sodipodi:rx="25"
       sodipodi:ry="25"
       d="m 290,403.96512 a 25,25 0 1 1 -50,0 25,25 0 1 1 50,0 z"
       transform="matrix(0.83371932,0,0,0.83371931,537.3321,-42.699109)" />
    <g
       style="font-size:40px;font-style:normal;font-variant:normal;font-weight:normal;font-stretch:normal;line-height:125%;letter-spacing:0px;word-spacing:0px;fill:none;stroke:#ff0000;stroke-opacity:1;font-family:Source Sans Pro;-inkscape-font-specification:Source Sans Pro"
       id="text4422"
       transform="translate(0,-18)">
      <path
         d="m 314.04966,980.41347 c -0.0267,-0.61331 -0.13336,-1.09331 -0.32,-1.44 -0.18669,-0.37331 -0.52003,-0.63998 -1,-0.8 -0.45336,-0.18664 -1.06669,-0.30664 -1.84,-0.36 -0.74669,-0.0533 -1.72002,-0.08 -2.92,-0.08 -0.21335,2e-5 -0.38669,2e-5 -0.52,0 -0.13335,2e-5 -0.30669,0.0134 -0.52,0.04 -1.73335,0.08 -3.18668,0.12002 -4.36,0.12 -1.17335,2e-5 -2.12001,0.0667 -2.84,0.2 -0.72001,0.10669 -1.24001,0.32002 -1.56,0.64 -0.32001,0.32002 -0.48001,0.85335 -0.48,1.6 -1e-5,0.66669 0.23999,1.17335 0.72,1.52 0.47999,0.32002 1.14665,0.49335 2,0.52 1.19999,0.0267 2.33332,0.0534 3.4,0.08 1.09332,0.0267 2.10665,0.04 3.04,0.04 0.55998,2e-5 1.13331,2e-5 1.72,0 0.61331,-0.0267 1.18664,-0.04 1.72,-0.04 2.21331,2e-5 4.13331,0.0667 5.76,0.2 1.62664,0.10668 2.95997,0.42668 4,0.96 1.06663,0.53335 1.8533,1.34668 2.36,2.44 0.50663,1.09335 0.75996,2.62668 0.76,4.6 -4e-5,1.38668 -0.13337,2.56001 -0.4,3.52 -0.2667,0.96001 -0.69337,1.76 -1.28,2.4 -0.56003,0.61334 -1.28003,1.09334 -2.16,1.44 -0.88003,0.34667 -1.93336,0.58667 -3.16,0.72 -0.72003,0.08 -2.10669,0.17334 -4.16,0.28 -2.05336,0.10667 -4.68002,0.16 -7.88,0.16 -3.14668,0 -5.72001,-0.0933 -7.72,-0.28 -1.97334,-0.18666 -3.41334,-0.6 -4.32,-1.24 -0.64,-0.45333 -1.12,-0.93333 -1.44,-1.44 -0.29334,-0.53333 -0.50667,-1.09333 -0.64,-1.68 -0.10667,-0.58666 -0.16,-1.21333 -0.16,-1.88 0,-0.69332 0,-1.43999 0,-2.24 l 8.04,0 c -10e-6,0.29334 -10e-6,0.60001 0,0.92 -10e-6,0.32001 0.0667,0.61334 0.2,0.88 0.13332,0.24001 0.37332,0.46667 0.72,0.68 0.34666,0.18667 0.87999,0.30667 1.6,0.36 0.34665,0.0267 0.98665,0.0533 1.92,0.08 0.95998,0.0267 2.15998,0.04 3.6,0.04 1.86665,10e-6 3.38665,-0.0133 4.56,-0.04 1.19998,-0.0267 2.13331,-0.11999 2.8,-0.28 0.66664,-0.15999 1.11997,-0.39999 1.36,-0.72 0.23997,-0.31999 0.35997,-0.78666 0.36,-1.4 -3e-5,-0.58666 -0.12003,-1.03999 -0.36,-1.36 -0.24003,-0.34666 -0.58669,-0.58666 -1.04,-0.72 -0.45336,-0.15999 -1.00002,-0.25332 -1.64,-0.28 -0.61336,-0.0267 -1.29336,-0.04 -2.04,-0.04 -2.61335,-0.0267 -4.93335,-0.0267 -6.96,0 -2.02668,1e-5 -3.78668,-0.0533 -5.28,-0.16 -1.49334,-0.10665 -2.76001,-0.29332 -3.8,-0.56 -1.01334,-0.26665 -1.84,-0.69332 -2.48,-1.28 -0.61334,-0.58665 -1.06667,-1.35998 -1.36,-2.32 -0.26667,-0.95998 -0.4,-2.17331 -0.4,-3.64 0,-1.30665 0.10666,-2.43998 0.32,-3.4 0.24,-0.95998 0.62666,-1.75997 1.16,-2.4 0.53333,-0.66664 1.22666,-1.17331 2.08,-1.52 0.87999,-0.37331 1.95999,-0.63997 3.24,-0.8 0.85332,-0.10664 2.22666,-0.2133 4.12,-0.32 1.91999,-0.10664 4.31998,-0.15997 7.2,-0.16 1.51998,3e-5 2.87998,0.0134 4.08,0.04 1.22664,3e-5 2.30664,0.0534 3.24,0.16 0.95997,0.10669 1.79997,0.26669 2.52,0.48 0.71997,0.18669 1.34664,0.48003 1.88,0.88 0.58663,0.42669 1.03997,0.88003 1.36,1.36 0.34663,0.48003 0.59997,1.00002 0.76,1.56 0.15997,0.56002 0.26663,1.17336 0.32,1.84 0.0533,0.64002 0.08,1.34669 0.08,2.12 l -7.96,0"
         style="fill:none;stroke:#ff0000;stroke-opacity:1;font-family:Eurostile MN;-inkscape-font-specification:Eurostile MN"
         id="path4427"
         inkscape:connector-curvature="0" />
      <path
         d="m 364.06903,972.25347 -14.88,26.68 -10.36,0 -14.08,-26.68 8.92,0 10.44,20.12 10.92,-20.12 9.04,0"
         style="fill:none;stroke:#ff0000;stroke-opacity:1;font-family:Eurostile MN;-inkscape-font-specification:Eurostile MN"
         id="path4429"
         inkscape:connector-curvature="0" />
      <path
         d="m 398.37966,991.81347 c -3e-5,1.60001 -0.24003,2.89334 -0.72,3.88 -0.45337,0.96 -1.21337,1.69334 -2.28,2.2 -1.04003,0.50667 -2.4267,0.84 -4.16,1 -1.73336,0.16 -3.86669,0.24 -6.4,0.24 -0.61335,0 -1.13335,-0.0133 -1.56,-0.04 -0.42669,0 -0.94668,-0.0133 -1.56,-0.04 -2.29335,-0.08 -4.38668,-0.10667 -6.28,-0.08 -1.86668,0.0267 -3.46667,-0.14666 -4.8,-0.52 -1.33334,-0.37333 -2.36,-1.09333 -3.08,-2.16 -0.72,-1.09333 -1.08,-2.79999 -1.08,-5.12 0,-0.29332 0,-0.53332 0,-0.72 0.0267,-0.21332 0.0533,-0.46666 0.08,-0.76 l 7.32,0 c -1e-5,1.20001 0.11999,2.12001 0.36,2.76 0.26666,0.61334 0.75999,0.94667 1.48,1 0.63999,0.0533 1.71999,0.10667 3.24,0.16 1.51998,0.0267 3.45331,0.04 5.8,0.04 1.01331,10e-6 1.89331,10e-6 2.64,0 0.77331,-0.0267 1.39998,-0.11999 1.88,-0.28 0.50664,-0.15999 0.87997,-0.41333 1.12,-0.76 0.26664,-0.34666 0.39997,-0.85332 0.4,-1.52 -3e-5,-1.22666 -0.28003,-2.02666 -0.84,-2.4 -0.53336,-0.37332 -1.40002,-0.55999 -2.6,-0.56 l -1.68,0 -6.4,0 0,-5.08 5.4,0 c 0.95998,2e-5 1.78664,2e-5 2.48,0 0.69331,-0.0266 1.25331,-0.11998 1.68,-0.28 0.45331,-0.15998 0.78664,-0.39998 1,-0.72 0.21331,-0.34665 0.31997,-0.83998 0.32,-1.48 -3e-5,-0.69331 -0.0934,-1.25331 -0.28,-1.68 -0.18669,-0.42664 -0.50669,-0.67998 -0.96,-0.76 -1.01336,-0.18664 -2.04002,-0.31998 -3.08,-0.4 -1.01335,-0.08 -2.02669,-0.11998 -3.04,-0.12 -1.60002,2e-5 -2.94668,0.0134 -4.04,0.04 -1.09335,0.0267 -1.98668,0.13336 -2.68,0.32 -0.66668,0.16002 -1.16001,0.45336 -1.48,0.88 -0.29334,0.40002 -0.44001,1.00002 -0.44,1.8 -10e-6,0.13335 -10e-6,0.25335 0,0.36 -10e-6,0.10669 0.0133,0.22669 0.04,0.36 l -7.56,0 c 0.0267,-1.33331 0.10666,-2.49331 0.24,-3.48 0.16,-0.98664 0.44,-1.81331 0.84,-2.48 0.4,-0.69331 0.96,-1.25331 1.68,-1.68 0.74666,-0.42664 1.71999,-0.75997 2.92,-1 1.19999,-0.23997 2.66666,-0.39997 4.4,-0.48 1.73332,-0.08 3.79998,-0.11997 6.2,-0.12 2.90664,3e-5 5.30664,0.0667 7.2,0.2 1.91997,0.10669 3.43997,0.41336 4.56,0.92 1.14663,0.50669 1.94663,1.26669 2.4,2.28 0.4533,1.01336 0.67997,2.41336 0.68,4.2 -3e-5,1.20002 -0.12003,2.13335 -0.36,2.8 -0.21337,0.66668 -0.5467,1.18668 -1,1.56 -0.4267,0.37335 -0.97336,0.65335 -1.64,0.84 -0.6667,0.18668 -1.44003,0.41335 -2.32,0.68 0.95997,0.13335 1.8133,0.29335 2.56,0.48 0.74663,0.16001 1.3733,0.45335 1.88,0.88 0.50663,0.40001 0.87997,0.98668 1.12,1.76 0.26663,0.74668 0.39997,1.77334 0.4,3.08"
         style="fill:none;stroke:#ff0000;stroke-opacity:1;font-family:Eurostile MN;-inkscape-font-specification:Eurostile MN"
         id="path4431"
         inkscape:connector-curvature="0" />
      <path
         d="m 420.25778,985.81347 12.48,0 c 1.27998,10e-6 2.18665,-0.23998 2.72,-0.72 0.53331,-0.50665 0.79998,-1.42665 0.8,-2.76 -2e-5,-1.27998 -0.24002,-2.19998 -0.72,-2.76 -0.48002,-0.58665 -1.41335,-0.87998 -2.8,-0.88 l -12.48,0 0,7.12 m -8.2,13.12 0,-26.72 21.64,0 c 1.91998,3e-5 3.55998,0.12003 4.92,0.36 1.35997,0.21336 2.50664,0.74669 3.44,1.6 0.9333,0.85336 1.55997,1.93336 1.88,3.24 0.31997,1.28002 0.47997,2.84002 0.48,4.68 -3e-5,1.97335 -0.1467,3.61335 -0.44,4.92 -0.29336,1.30668 -0.8267,2.36001 -1.6,3.16 -0.74669,0.77334 -1.76003,1.33334 -3.04,1.68 -1.28002,0.32001 -2.90669,0.48001 -4.88,0.48 -0.29335,10e-6 -0.56002,10e-6 -0.8,0 -0.21335,-0.0267 -0.46669,-0.04 -0.76,-0.04 l -12.64,0 0,6.64 -8.2,0"
         style="fill:none;stroke:#ff0000;stroke-opacity:1;font-family:Eurostile MN;-inkscape-font-specification:Eurostile MN"
         id="path4433"
         inkscape:connector-curvature="0" />
      <path
         d="m 469.44278,972.25347 0,26.68 -8.04,0 0,-20.4 -9.68,6.64 -3.6,-5.44 11.4,-7.48 9.92,0"
         style="fill:none;stroke:#ff0000;stroke-opacity:1;font-family:Eurostile MN;-inkscape-font-specification:Eurostile MN"
         id="path4435"
         inkscape:connector-curvature="0" />
      <path
         d="m 525.55341,972.25347 -14.88,26.68 -10.36,0 -14.08,-26.68 8.92,0 10.44,20.12 10.92,-20.12 9.04,0"
         style="fill:none;stroke:#ff0000;stroke-opacity:1;font-family:Eurostile MN;-inkscape-font-specification:Eurostile MN"
         id="path4437"
         inkscape:connector-curvature="0" />
      <path
         d="m 535.30403,985.61347 c 0,1.68001 0.0667,2.98668 0.2,3.92 0.15999,0.90668 0.53333,1.58668 1.12,2.04 0.61333,0.45334 1.50666,0.73334 2.68,0.84 1.19999,0.08 2.83999,0.12001 4.92,0.12 1.99998,1e-5 3.55998,-0.0533 4.68,-0.16 1.14665,-0.10666 2.01331,-0.38666 2.6,-0.84 0.58665,-0.47999 0.94664,-1.17332 1.08,-2.08 0.15998,-0.93332 0.23998,-2.22665 0.24,-3.88 -2e-5,-1.70665 -0.08,-3.03998 -0.24,-4 -0.13336,-0.95998 -0.49335,-1.66665 -1.08,-2.12 -0.56002,-0.47998 -1.42669,-0.77331 -2.6,-0.88 -1.14668,-0.10664 -2.73335,-0.15998 -4.76,-0.16 -2.02668,2e-5 -3.62668,0.0534 -4.8,0.16 -1.17334,0.08 -2.06667,0.36002 -2.68,0.84 -0.58667,0.45335 -0.96001,1.16002 -1.12,2.12 -0.16,0.96002 -0.24,2.32002 -0.24,4.08 m -7.88,-0.12 c 0,-2.23998 0.0933,-4.11998 0.28,-5.64 0.21334,-1.54664 0.56,-2.81331 1.04,-3.8 0.50667,-0.98664 1.2,-1.74664 2.08,-2.28 0.88,-0.53331 1.98666,-0.91997 3.32,-1.16 1.36,-0.23997 2.98666,-0.3733 4.88,-0.4 1.89332,-0.0533 4.11999,-0.08 6.68,-0.08 2.13332,3e-5 3.98665,0.0534 5.56,0.16 1.59998,0.10669 2.94664,0.32003 4.04,0.64 1.11997,0.32003 2.02664,0.78669 2.72,1.4 0.71997,0.58669 1.27997,1.37336 1.68,2.36 0.39997,0.98669 0.66664,2.20002 0.8,3.64 0.15997,1.44002 0.23997,3.16002 0.24,5.16 -3e-5,2.29335 -0.0934,4.22668 -0.28,5.8 -0.16003,1.57334 -0.48003,2.86667 -0.96,3.88 -0.48003,0.98667 -1.14669,1.74667 -2,2.28 -0.82669,0.53334 -1.93336,0.93334 -3.32,1.2 -1.36002,0.24 -3.01335,0.37333 -4.96,0.4 -1.94668,0.0267 -4.25335,0.04 -6.92,0.04 -2.18668,0 -4.06667,-0.04 -5.64,-0.12 -1.57334,-0.08 -2.92,-0.26666 -4.04,-0.56 -1.09333,-0.32 -1.98667,-0.77333 -2.68,-1.36 -0.66667,-0.58666 -1.18666,-1.38666 -1.56,-2.4 -0.37333,-1.01333 -0.62666,-2.26666 -0.76,-3.76 -0.13333,-1.49332 -0.2,-3.29332 -0.2,-5.4"
         style="fill:none;stroke:#ff0000;stroke-opacity:1;font-family:Eurostile MN;-inkscape-font-specification:Eurostile MN"
         id="path4439"
         inkscape:connector-curvature="0" />
    </g>
    <path
       inkscape:connector-curvature="0"
       id="path4458"
       style="font-size:128px;font-style:normal;font-variant:normal;font-weight:normal;font-stretch:normal;text-align:center;line-height:100%;letter-spacing:0px;word-spacing:0px;writing-mode:lr-tb;text-anchor:middle;fill:none;fill-opacity:1;stroke:#00ff00;font-family:Eurostile MN;-inkscape-font-specification:Eurostile MN;stroke-opacity:1"
       d="m 211.1288,542.30127 0,-85.376 95.232,0 0,19.2 -69.504,0 0,14.848 64.896,0 0,16.896 -64.896,0 0,15.232 69.504,0 0,19.2 -95.232,0" />
    <path
       inkscape:connector-curvature="0"
       id="path4460"
       style="font-size:128px;font-style:normal;font-variant:normal;font-weight:normal;font-stretch:normal;text-align:center;line-height:100%;letter-spacing:0px;word-spacing:0px;writing-mode:lr-tb;text-anchor:middle;fill:none;fill-opacity:1;stroke:#00ff00;font-family:Eurostile MN;-inkscape-font-specification:Eurostile MN;stroke-opacity:1"
       d="m 406.8268,526.81327 -55.168,0 -8.448,15.488 -28.928,0 47.616,-85.376 35.072,0 46.592,85.376 -28.672,0 -8.064,-15.488"
       sodipodi:nodetypes="ccccccccc" />
    <path
       inkscape:connector-curvature="0"
       id="path4462"
       style="font-size:128px;font-style:normal;font-variant:normal;font-weight:normal;font-stretch:normal;text-align:center;line-height:100%;letter-spacing:0px;word-spacing:0px;writing-mode:lr-tb;text-anchor:middle;fill:none;fill-opacity:1;stroke:#00ff00;font-family:Eurostile MN;-inkscape-font-specification:Eurostile MN;stroke-opacity:1"
       d="m 489.65687,478.30127 0,64 -26.24,0 0,-64 -38.272,0 0,-21.376 102.144,0 0,21.376 -37.632,0" />
    <path
       inkscape:connector-curvature="0"
       id="path4464"
       style="font-size:128px;font-style:normal;font-variant:normal;font-weight:normal;font-stretch:normal;text-align:center;line-height:100%;letter-spacing:0px;word-spacing:0px;writing-mode:lr-tb;text-anchor:middle;fill:none;fill-opacity:1;stroke:#00ff00;font-family:Eurostile MN;-inkscape-font-specification:Eurostile MN;stroke-opacity:1"
       d="m 611.15687,483.03727 c -0.0854,-1.96261 -0.42675,-3.4986 -1.024,-4.608 -0.59742,-1.1946 -1.66408,-2.04793 -3.2,-2.56 -1.45075,-0.59727 -3.41341,-0.98127 -5.888,-1.152 -2.38941,-0.1706 -5.50407,-0.25593 -9.344,-0.256 -0.68273,7e-5 -1.2374,7e-5 -1.664,0 -0.42673,7e-5 -0.9814,0.0427 -1.664,0.128 -5.54673,0.25607 -10.19739,0.38407 -13.952,0.384 -3.75471,7e-5 -6.78404,0.2134 -9.088,0.64 -2.30404,0.3414 -3.96804,1.02407 -4.992,2.048 -1.02403,1.02406 -1.53603,2.73073 -1.536,5.12 -3e-5,2.13339 0.76796,3.75472 2.304,4.864 1.53596,1.02405 3.66929,1.57872 6.4,1.664 3.83995,0.0854 7.46662,0.17072 10.88,0.256 3.49861,0.0854 6.74127,0.12805 9.728,0.128 1.79193,5e-5 3.6266,5e-5 5.504,0 1.9626,-0.0853 3.79726,-0.12795 5.504,-0.128 7.08258,5e-5 13.22658,0.21339 18.432,0.64 5.20524,0.34138 9.4719,1.36538 12.8,3.072 3.41322,1.70671 5.93055,4.30938 7.552,7.808 1.62122,3.4987 2.43188,8.40537 2.432,14.72 -1.2e-4,4.43735 -0.42678,8.19202 -1.28,11.264 -0.85345,3.07201 -2.21878,5.63201 -4.096,7.68 -1.79211,1.96267 -4.09611,3.49867 -6.912,4.608 -2.8161,1.10933 -6.18676,1.87733 -10.112,2.304 -2.30409,0.256 -6.74142,0.55467 -13.312,0.896 -6.57074,0.34133 -14.97607,0.512 -25.216,0.512 -10.06938,0 -18.30404,-0.29867 -24.704,-0.896 -6.31469,-0.59733 -10.92269,-1.92 -13.824,-3.968 -2.04801,-1.45066 -3.58401,-2.98666 -4.608,-4.608 -0.93868,-1.70666 -1.62134,-3.49865 -2.048,-5.376 -0.34134,-1.87732 -0.51201,-3.88265 -0.512,-6.016 -10e-6,-2.21864 -10e-6,-4.60798 0,-7.168 l 25.728,0 c -3e-5,0.93869 -3e-5,1.92002 0,2.944 -3e-5,1.02402 0.2133,1.96269 0.64,2.816 0.42663,0.76802 1.19463,1.49335 2.304,2.176 1.10929,0.59735 2.81596,0.98135 5.12,1.152 1.10929,0.0853 3.15729,0.17068 6.144,0.256 3.07195,0.0854 6.91194,0.12802 11.52,0.128 5.97327,2e-5 10.83726,-0.0426 14.592,-0.128 3.83992,-0.0853 6.82658,-0.38398 8.96,-0.896 2.13325,-0.51198 3.58391,-1.27998 4.352,-2.304 0.76791,-1.02398 1.15191,-2.51731 1.152,-4.48 -9e-5,-1.87731 -0.38409,-3.32797 -1.152,-4.352 -0.76809,-1.1093 -1.87742,-1.8773 -3.328,-2.304 -1.45075,-0.51197 -3.20008,-0.81063 -5.248,-0.896 -1.96274,-0.0853 -4.13874,-0.12797 -6.528,-0.128 -8.36273,-0.0853 -15.78672,-0.0853 -22.272,0 -6.48538,3e-5 -12.11737,-0.17063 -16.896,-0.512 -4.7787,-0.3413 -8.83203,-0.93863 -12.16,-1.792 -3.24269,-0.8533 -5.88802,-2.21863 -7.936,-4.096 -1.96268,-1.87729 -3.41334,-4.35196 -4.352,-7.424 -0.85334,-3.07195 -1.28001,-6.95461 -1.28,-11.648 -10e-6,-4.18127 0.34132,-7.80793 1.024,-10.88 0.76799,-3.07193 2.00532,-5.63193 3.712,-7.68 1.70665,-2.13325 3.92532,-3.75459 6.656,-4.864 2.81598,-1.19458 6.27197,-2.04792 10.368,-2.56 2.73063,-0.34125 7.1253,-0.68258 13.184,-1.024 6.14395,-0.34125 13.82394,-0.51191 23.04,-0.512 4.86393,9e-5 9.21592,0.0428 13.056,0.128 3.92525,9e-5 7.38125,0.17075 10.368,0.512 3.07191,0.34142 5.7599,0.85342 8.064,1.536 2.3039,0.59742 4.30923,1.53608 6.016,2.816 1.87723,1.36541 3.32789,2.81608 4.352,4.352 1.10922,1.53607 1.91989,3.20007 2.432,4.992 0.51189,1.79207 0.85322,3.75473 1.024,5.888 0.17055,2.04806 0.25589,4.30939 0.256,6.784 l -25.472,0" />
    <path
       inkscape:connector-curvature="0"
       id="path4466"
       style="font-size:128px;font-style:normal;font-variant:normal;font-weight:normal;font-stretch:normal;text-align:center;line-height:100%;letter-spacing:0px;word-spacing:0px;writing-mode:lr-tb;text-anchor:middle;fill:none;fill-opacity:1;stroke:#00ff00;font-family:Eurostile MN;-inkscape-font-specification:Eurostile MN;stroke-opacity:1"
       d="m 359.13484,638.30127 0,-16.256 58.496,0 c -0.0854,6.57071 -0.17079,12.3307 -0.256,17.28 -1.2e-4,4.94936 -0.25612,9.25869 -0.768,12.928 -0.42679,3.58401 -1.28012,6.61334 -2.56,9.088 -1.28012,2.38934 -3.20011,4.352 -5.76,5.888 -2.47478,1.45067 -5.80277,2.47467 -9.984,3.072 -4.0961,0.59733 -9.25876,0.896 -15.488,0.896 -2.73075,0 -5.50408,-0.0427 -8.32,-0.128 -2.73074,0 -5.41874,0 -8.064,0 l -7.936,0 c -9.47205,0 -17.53604,-0.256 -24.192,-0.768 -6.5707,-0.512 -11.94669,-1.96267 -16.128,-4.352 -4.18135,-2.38933 -7.21068,-6.01599 -9.088,-10.88 -1.87734,-4.86398 -2.81601,-11.64797 -2.816,-20.352 -1e-5,-2.6453 0.0853,-6.18663 0.256,-10.624 0.17066,-4.52262 0.42666,-9.89861 0.768,-16.128 0.0853,-2.7306 0.68266,-5.37593 1.792,-7.936 1.10932,-2.55993 2.51732,-4.82126 4.224,-6.784 1.79198,-1.96259 3.79731,-3.58392 6.016,-4.864 2.30398,-1.36525 4.73597,-2.21858 7.296,-2.56 5.11997,-0.68258 10.23996,-1.15191 15.36,-1.408 5.11995,-0.25591 10.23995,-0.38391 15.36,-0.384 6.91193,9e-5 13.09859,9e-5 18.56,0 5.54658,9e-5 10.45324,0.17075 14.72,0.512 4.26657,0.34142 7.9359,0.93875 11.008,1.792 3.07189,0.76808 5.63189,1.96275 7.68,3.584 1.96255,1.53608 3.49855,3.15741 4.608,4.864 1.10922,1.70674 1.91988,3.5414 2.432,5.504 0.51188,1.96273 0.81055,4.09607 0.896,6.4 0.17055,2.30406 0.25588,4.77873 0.256,7.424 l -25.472,0 c -0.17076,-2.21861 -0.51209,-3.92527 -1.024,-5.12 -0.51209,-1.27994 -1.45076,-2.2186 -2.816,-2.816 -1.28009,-0.6826 -3.11475,-1.10927 -5.504,-1.28 -2.30408,-0.1706 -5.29075,-0.25593 -8.96,-0.256 l -6.528,0 c -2.30407,7e-5 -4.5654,7e-5 -6.784,0 -2.21873,-0.0853 -4.26673,-0.12793 -6.144,-0.128 -4.26672,7e-5 -7.80805,0.0854 -10.624,0.256 -2.73071,0.0854 -4.94937,0.7254 -6.656,1.92 -1.7067,1.19473 -2.90137,3.15739 -3.584,5.888 -0.6827,2.64539 -1.02404,6.52805 -1.024,11.648 -4e-5,4.69337 0.0853,8.6187 0.256,11.776 0.25596,3.15736 0.76796,5.71736 1.536,7.68 0.76796,1.96269 1.91996,3.45602 3.456,4.48 1.53596,0.93869 3.58396,1.62135 6.144,2.048 2.64528,0.42669 5.88795,0.64002 9.728,0.64 3.92527,2e-5 8.66127,2e-5 14.208,0 4.09593,2e-5 7.67992,2e-5 10.752,0 3.07192,2e-5 5.63191,-0.29865 7.68,-0.896 2.04791,-0.59731 3.54124,-1.57865 4.48,-2.944 1.02391,-1.45064 1.53591,-3.58397 1.536,-6.4 -9e-5,-0.51197 -0.0428,-0.89597 -0.128,-1.152 -9e-5,-0.25597 -9e-5,-0.63997 0,-1.152 l -32.896,0" />
    <path
       inkscape:connector-curvature="0"
       id="path4468"
       style="font-size:128px;font-style:normal;font-variant:normal;font-weight:normal;font-stretch:normal;text-align:center;line-height:100%;letter-spacing:0px;word-spacing:0px;writing-mode:lr-tb;text-anchor:middle;fill:none;fill-opacity:1;stroke:#00ff00;font-family:Eurostile MN;-inkscape-font-specification:Eurostile MN;stroke-opacity:1"
       d="m 425.64284,635.74127 c -10e-6,-8.10662 0.0853,-15.06128 0.256,-20.864 0.25599,-5.88794 1.06666,-10.83727 2.432,-14.848 1.45065,-4.01059 3.66932,-7.16792 6.656,-9.472 3.07198,-2.38925 7.42397,-4.09592 13.056,-5.12 3.83996,-0.68258 10.79462,-1.06658 20.864,-1.152 10.1546,-0.17058 23.42392,-0.25591 39.808,-0.256 5.3759,9e-5 10.02656,0.46942 13.952,1.408 3.92522,0.93875 7.21055,2.43208 9.856,4.48 2.73055,1.96274 4.86388,4.56541 6.4,7.808 1.53588,3.24274 2.60254,7.16806 3.2,11.776 0.34121,2.38939 0.51187,5.50405 0.512,9.344 0.0852,3.84005 0.12787,8.32004 0.128,13.44 -1.3e-4,6.22936 -0.38413,11.52003 -1.152,15.872 -0.76812,4.26668 -2.09079,7.85068 -3.968,10.752 -1.87745,2.90134 -4.39478,5.16267 -7.552,6.784 -3.07211,1.62134 -6.95477,2.85867 -11.648,3.712 -4.69343,0.768 -10.24009,1.23733 -16.64,1.408 -6.31475,0.256 -13.69607,0.384 -22.144,0.384 -9.55739,0 -17.74938,-0.29867 -24.576,-0.896 -6.8267,-0.512 -12.41603,-1.92 -16.768,-4.224 -4.35202,-2.38933 -7.55201,-5.93066 -9.6,-10.624 -2.04801,-4.77865 -3.07201,-11.34931 -3.072,-19.712"
       sodipodi:nodetypes="ccccccccccccccccccscccc" />
    <path
       inkscape:connector-curvature="0"
       id="path4470"
       style="font-size:128px;font-style:normal;font-variant:normal;font-weight:normal;font-stretch:normal;text-align:center;line-height:100%;letter-spacing:0px;word-spacing:0px;writing-mode:lr-tb;text-anchor:middle;fill:none;fill-opacity:1;stroke:#00ff00;font-family:Eurostile MN;-inkscape-font-specification:Eurostile MN;stroke-opacity:1"
       d="m 286.21884,743.64527 0,-30.72 26.24,0 0,85.376 -26.24,0 0,-32.512 -58.752,0 0,32.512 -26.24,0 0,-85.376 26.24,0 0,30.72 58.752,0" />
    <path
       inkscape:connector-curvature="0"
       id="path4472"
       style="font-size:128px;font-style:normal;font-variant:normal;font-weight:normal;font-stretch:normal;text-align:center;line-height:100%;letter-spacing:0px;word-spacing:0px;writing-mode:lr-tb;text-anchor:middle;fill:none;fill-opacity:1;stroke:#00ff00;font-family:Eurostile MN;-inkscape-font-specification:Eurostile MN;stroke-opacity:1"
       d="m 325.68484,798.30127 0,-85.376 95.232,0 0,19.2 -69.504,0 0,14.848 64.896,0 0,16.896 -64.896,0 0,15.232 69.504,0 0,19.2 -95.232,0" />
    <path
       inkscape:connector-curvature="0"
       id="path4474"
       style="font-size:128px;font-style:normal;font-variant:normal;font-weight:normal;font-stretch:normal;text-align:center;line-height:100%;letter-spacing:0px;word-spacing:0px;writing-mode:lr-tb;text-anchor:middle;fill:none;fill-opacity:1;stroke:#00ff00;font-family:Eurostile MN;-inkscape-font-specification:Eurostile MN;stroke-opacity:1"
       d="m 461.09484,776.28527 0,22.016 -26.24,0 0,-85.376 79.36,0 c 5.29057,8e-5 9.7279,0.51208 13.312,1.536 3.66922,0.93875 6.61322,2.47475 8.832,4.608 2.30388,2.13341 3.92522,4.90674 4.864,8.32 1.02388,3.4134 1.53588,7.59473 1.536,12.544 -1.2e-4,5.12005 -0.42679,9.17338 -1.28,12.16 -0.76812,2.98671 -1.96278,5.33337 -3.584,7.04 -1.53611,1.7067 -3.45611,2.9867 -5.76,3.84 -2.30411,0.85337 -4.90677,1.7067 -7.808,2.56 2.38923,0.51203 4.65056,0.98136 6.784,1.408 2.13322,0.34136 3.96789,1.0667 5.504,2.176 1.62122,1.10936 2.85855,2.73069 3.712,4.864 0.93855,2.04802 1.40788,5.03469 1.408,8.96 l 0,15.36 -26.24,0 0,-11.264 c -9e-5,-3.66932 -0.76809,-6.35732 -2.304,-8.064 -1.45076,-1.79198 -4.43742,-2.68798 -8.96,-2.688 l -43.136,0"
       sodipodi:nodetypes="cccccccccccscccccccccsc" />
    <path
       inkscape:connector-curvature="0"
       id="path4476"
       style="font-size:128px;font-style:normal;font-variant:normal;font-weight:normal;font-stretch:normal;text-align:center;line-height:100%;letter-spacing:0px;word-spacing:0px;writing-mode:lr-tb;text-anchor:middle;fill:none;fill-opacity:1;stroke:#00ff00;font-family:Eurostile MN;-inkscape-font-specification:Eurostile MN;stroke-opacity:1"
       d="m 553.93484,798.30127 0,-85.376 95.232,0 0,19.2 -69.504,0 0,14.848 64.896,0 0,16.896 -64.896,0 0,15.232 69.504,0 0,19.2 -95.232,0" />
    <path
       style="fill:none;stroke:#00ff00;stroke-width:1px;stroke-linecap:butt;stroke-linejoin:miter;stroke-opacity:1"
       d="m 81.354178,591.18688 0,70.2056 94.449262,0 0,37.41626 73.23606,-73.23606 -73.23606,-73.23606 0,38.85026 z"
       id="path4492"
       inkscape:connector-curvature="0"
       sodipodi:nodetypes="cccccccc" />
    <path
       sodipodi:nodetypes="cccccccc"
       inkscape:connector-curvature="0"
       id="path4494"
       d="m 769.0395,591.18688 0,70.2056 -94.44926,0 0,37.41626 -73.23606,-73.23606 73.23606,-73.23606 0,38.85026 z"
       style="fill:none;stroke:#00ff00;stroke-width:1px;stroke-linecap:butt;stroke-linejoin:miter;stroke-opacity:1" />
    <path
       style="fill:none;stroke:#00ff00;stroke-width:0.9933489px;stroke-linecap:butt;stroke-linejoin:miter;stroke-opacity:1"
       d="m 71.362817,344.19738 52.639033,0 59.75763,91.36601 0,98.97922 -112.396663,0 z"
       id="path4499"
       inkscape:connector-curvature="0"
       sodipodi:nodetypes="cccccc" />
    <path
       sodipodi:nodetypes="cccccc"
       inkscape:connector-curvature="0"
       id="path4503"
       d="m 779.03088,344.19738 -52.63903,0 -59.75763,91.36601 0,98.97922 112.39666,0 z"
       style="fill:none;stroke:#00ff00;stroke-width:0.9933489px;stroke-linecap:butt;stroke-linejoin:miter;stroke-opacity:1" />
    <path
       sodipodi:nodetypes="cccccc"
       inkscape:connector-curvature="0"
       id="path4509"
       d="m 71.362817,910.13317 52.639033,0 59.75763,-91.36601 0,-98.97922 -112.396663,0 z"
       style="fill:none;stroke:#00ff00;stroke-width:0.9933489px;stroke-linecap:butt;stroke-linejoin:miter;stroke-opacity:1" />
    <path
       style="fill:none;stroke:#00ff00;stroke-width:0.9933489px;stroke-linecap:butt;stroke-linejoin:miter;stroke-opacity:1"
       d="m 779.03088,910.13317 -52.63903,0 -59.75763,-91.36601 0,-98.97922 112.39666,0 z"
       id="path4511"
       inkscape:connector-curvature="0"
       sodipodi:nodetypes="cccccc" />
    <path
       style="fill:none;stroke:#00ff00;stroke-width:0.97839326;stroke-linecap:round;stroke-linejoin:bevel;stroke-miterlimit:4;stroke-opacity:1"
       d="m 202.0197,829.62299 211.62003,0 0,91.14758 -271.90745,0 z"
       id="rect4513"
       inkscape:connector-curvature="0"
       sodipodi:nodetypes="ccccc" />
    <path
       sodipodi:nodetypes="ccccc"
       inkscape:connector-curvature="0"
       id="path4516"
       d="m 647.93597,829.62299 -211.62,0 0,91.14758 271.91,0 z"
       style="fill:none;stroke:#00ff00;stroke-width:0.97839326;stroke-linecap:round;stroke-linejoin:bevel;stroke-miterlimit:4;stroke-opacity:1" />
    <path
       sodipodi:nodetypes="ccccc"
       inkscape:connector-curvature="0"
       id="path4518"
       d="m 202.0197,425.3375 211.62003,0 0,-91.14758 -271.90745,0 z"
       style="fill:none;stroke:#00ff00;stroke-width:0.97839326;stroke-linecap:round;stroke-linejoin:bevel;stroke-miterlimit:4;stroke-opacity:1" />
    <path
       style="fill:none;stroke:#00ff00;stroke-width:0.97839326;stroke-linecap:round;stroke-linejoin:bevel;stroke-miterlimit:4;stroke-opacity:1"
       d="m 647.93597,425.3375 -211.62,0 0,-91.14758 271.91,0 z"
       id="path4520"
       inkscape:connector-curvature="0"
       sodipodi:nodetypes="ccccc" />
    <rect
       style="fill:none;stroke:#00ff00;stroke-width:1.02609646;stroke-linecap:round;stroke-linejoin:bevel;stroke-miterlimit:4;stroke-opacity:1;stroke-dasharray:none"
       id="rect4522"
       width="580.07629"
       height="55.666817"
       x="135.15869"
       y="259.17438" />
    <rect
       y="939.23059"
       x="134.89999"
       height="56.184277"
       width="141.22365"
       id="rect4524"
       style="fill:none;stroke:#00ff00;stroke-width:0.50863773;stroke-linecap:round;stroke-linejoin:bevel;stroke-miterlimit:4;stroke-opacity:1;stroke-dasharray:none" />
    <rect
       style="fill:none;stroke:#00ff00;stroke-width:0.50863773;stroke-linecap:round;stroke-linejoin:bevel;stroke-miterlimit:4;stroke-opacity:1;stroke-dasharray:none"
       id="rect4526"
       width="141.22365"
       height="56.184277"
       x="574.27008"
       y="939.23059" />
  </g>
</svg>
