solid OpenSCAD_Model
  facet normal -1 0 0
    outer loop
      vertex 0 -20 0
      vertex 0 -20 3
      vertex 0 60 0
    endloop
  endfacet
  facet normal -1 0 0
    outer loop
      vertex 0 60 0
      vertex 0 -20 3
      vertex 0 0 3
    endloop
  endfacet
  facet normal -1 0 0
    outer loop
      vertex 0 40 3
      vertex 0 0 3
      vertex 0 0 25
    endloop
  endfacet
  facet normal -1 0 0
    outer loop
      vertex 0 60 0
      vertex 0 0 3
      vertex 0 40 3
    endloop
  endfacet
  facet normal -1 0 0
    outer loop
      vertex 0 60 3
      vertex 0 60 0
      vertex 0 40 3
    endloop
  endfacet
  facet normal -1 0 0
    outer loop
      vertex 0 40 3
      vertex 0 0 25
      vertex 0 40 25
    endloop
  endfacet
  facet normal 0 -1 0
    outer loop
      vertex 0 -20 3
      vertex 0 -20 0
      vertex 30 -20 0
    endloop
  endfacet
  facet normal 0 -1 0
    outer loop
      vertex 30 -20 3
      vertex 0 -20 3
      vertex 30 -20 0
    endloop
  endfacet
  facet normal 0 0 -1
    outer loop
      vertex 30 3 0
      vertex 30 -20 0
      vertex 18.5418 -8.14111 0
    endloop
  endfacet
  facet normal 0 0 -1
    outer loop
      vertex 17.2723 53.2919 0
      vertex 0 60 0
      vertex 30 60 0
    endloop
  endfacet
  facet normal 0 0 -1
    outer loop
      vertex 0 -20 0
      vertex 0 60 0
      vertex 3 37 0
    endloop
  endfacet
  facet normal 0 0 -1
    outer loop
      vertex 0 -20 0
      vertex 3 37 0
      vertex 3 3 0
    endloop
  endfacet
  facet normal 0 0 -1
    outer loop
      vertex 0 -20 0
      vertex 3 3 0
      vertex 11.1162 -9.04274 0
    endloop
  endfacet
  facet normal 0 0 -1
    outer loop
      vertex 12.006 -7.34751 0
      vertex 3 3 0
      vertex 13.5816 -6.25993 0
    endloop
  endfacet
  facet normal 0 0 -1
    outer loop
      vertex 0 -20 0
      vertex 11.1162 -9.04274 0
      vertex 11.1162 -10.9573 0
    endloop
  endfacet
  facet normal 0 0 -1
    outer loop
      vertex 0 -20 0
      vertex 11.1162 -10.9573 0
      vertex 12.006 -12.6525 0
    endloop
  endfacet
  facet normal 0 0 -1
    outer loop
      vertex 0 -20 0
      vertex 12.006 -12.6525 0
      vertex 13.5816 -13.7401 0
    endloop
  endfacet
  facet normal 0 0 -1
    outer loop
      vertex 0 -20 0
      vertex 13.5816 -13.7401 0
      vertex 30 -20 0
    endloop
  endfacet
  facet normal 0 0 -1
    outer loop
      vertex 17.2723 -13.2919 0
      vertex 30 -20 0
      vertex 15.4821 -13.9708 0
    endloop
  endfacet
  facet normal 0 0 -1
    outer loop
      vertex 18.5418 -11.8589 0
      vertex 30 -20 0
      vertex 17.2723 -13.2919 0
    endloop
  endfacet
  facet normal 0 0 -1
    outer loop
      vertex 11.1162 50.9573 0
      vertex 0 60 0
      vertex 12.006 52.6525 0
    endloop
  endfacet
  facet normal 0 0 -1
    outer loop
      vertex 19 -10 0
      vertex 30 -20 0
      vertex 18.5418 -11.8589 0
    endloop
  endfacet
  facet normal 0 0 -1
    outer loop
      vertex 13.5816 -6.25993 0
      vertex 3 3 0
      vertex 15.4821 -6.02916 0
    endloop
  endfacet
  facet normal 0 0 -1
    outer loop
      vertex 19 -10 0
      vertex 18.5418 -8.14111 0
      vertex 30 -20 0
    endloop
  endfacet
  facet normal 0 0 -1
    outer loop
      vertex 3 3 0
      vertex 17.2723 -6.70806 0
      vertex 15.4821 -6.02916 0
    endloop
  endfacet
  facet normal 0 0 -1
    outer loop
      vertex 13.5816 53.7401 0
      vertex 0 60 0
      vertex 15.4821 53.9708 0
    endloop
  endfacet
  facet normal 0 0 -1
    outer loop
      vertex 11.1162 -9.04274 0
      vertex 3 3 0
      vertex 12.006 -7.34751 0
    endloop
  endfacet
  facet normal 0 0 -1
    outer loop
      vertex 11.1162 49.0427 0
      vertex 0 60 0
      vertex 11.1162 50.9573 0
    endloop
  endfacet
  facet normal 0 0 -1
    outer loop
      vertex 30 3 0
      vertex 18.5418 -8.14111 0
      vertex 17.2723 -6.70806 0
    endloop
  endfacet
  facet normal 0 0 -1
    outer loop
      vertex 30 3 0
      vertex 17.2723 -6.70806 0
      vertex 3 3 0
    endloop
  endfacet
  facet normal 0 0 -1
    outer loop
      vertex 13.5816 46.2599 0
      vertex 15.4821 46.0292 0
      vertex 30 37 0
    endloop
  endfacet
  facet normal 0 0 -1
    outer loop
      vertex 17.2723 46.7081 0
      vertex 30 37 0
      vertex 15.4821 46.0292 0
    endloop
  endfacet
  facet normal 0 0 -1
    outer loop
      vertex 18.5418 48.1411 0
      vertex 30 37 0
      vertex 17.2723 46.7081 0
    endloop
  endfacet
  facet normal 0 0 -1
    outer loop
      vertex 30 37 0
      vertex 18.5418 48.1411 0
      vertex 30 60 0
    endloop
  endfacet
  facet normal 0 0 -1
    outer loop
      vertex 18.5418 48.1411 0
      vertex 19 50 0
      vertex 30 60 0
    endloop
  endfacet
  facet normal 0 0 -1
    outer loop
      vertex 12.006 52.6525 0
      vertex 0 60 0
      vertex 13.5816 53.7401 0
    endloop
  endfacet
  facet normal 0 0 -1
    outer loop
      vertex 19 50 0
      vertex 18.5418 51.8589 0
      vertex 30 60 0
    endloop
  endfacet
  facet normal 0 0 -1
    outer loop
      vertex 15.4821 53.9708 0
      vertex 0 60 0
      vertex 17.2723 53.2919 0
    endloop
  endfacet
  facet normal 0 0 -1
    outer loop
      vertex 18.5418 51.8589 0
      vertex 17.2723 53.2919 0
      vertex 30 60 0
    endloop
  endfacet
  facet normal 0 0 -1
    outer loop
      vertex 3 37 0
      vertex 0 60 0
      vertex 11.1162 49.0427 0
    endloop
  endfacet
  facet normal 0 0 -1
    outer loop
      vertex 3 37 0
      vertex 11.1162 49.0427 0
      vertex 12.006 47.3475 0
    endloop
  endfacet
  facet normal 0 0 -1
    outer loop
      vertex 3 37 0
      vertex 12.006 47.3475 0
      vertex 13.5816 46.2599 0
    endloop
  endfacet
  facet normal 0 0 -1
    outer loop
      vertex 3 37 0
      vertex 13.5816 46.2599 0
      vertex 30 37 0
    endloop
  endfacet
  facet normal 0 0 -1
    outer loop
      vertex 15.4821 -13.9708 0
      vertex 30 -20 0
      vertex 13.5816 -13.7401 0
    endloop
  endfacet
  facet normal 0 1 0
    outer loop
      vertex 0 60 0
      vertex 0 60 3
      vertex 30 60 0
    endloop
  endfacet
  facet normal 0 1 0
    outer loop
      vertex 30 60 0
      vertex 0 60 3
      vertex 30 60 3
    endloop
  endfacet
  facet normal 0 0 1
    outer loop
      vertex 15.4821 46.0292 3
      vertex 0 40 3
      vertex 30 40 3
    endloop
  endfacet
  facet normal 0 0 1
    outer loop
      vertex 0 60 3
      vertex 0 40 3
      vertex 11.1162 49.0427 3
    endloop
  endfacet
  facet normal 0 0 1
    outer loop
      vertex 13.5816 53.7401 3
      vertex 15.4821 53.9708 3
      vertex 30 60 3
    endloop
  endfacet
  facet normal 0 0 1
    outer loop
      vertex 0 60 3
      vertex 11.1162 49.0427 3
      vertex 11.1162 50.9573 3
    endloop
  endfacet
  facet normal 0 0 1
    outer loop
      vertex 13.5816 53.7401 3
      vertex 0 60 3
      vertex 12.006 52.6525 3
    endloop
  endfacet
  facet normal 0 0 1
    outer loop
      vertex 18.5418 51.8589 3
      vertex 19 50 3
      vertex 30 40 3
    endloop
  endfacet
  facet normal 0 0 1
    outer loop
      vertex 30 60 3
      vertex 0 60 3
      vertex 13.5816 53.7401 3
    endloop
  endfacet
  facet normal 0 0 1
    outer loop
      vertex 30 60 3
      vertex 17.2723 53.2919 3
      vertex 30 40 3
    endloop
  endfacet
  facet normal 0 0 1
    outer loop
      vertex 30 60 3
      vertex 15.4821 53.9708 3
      vertex 17.2723 53.2919 3
    endloop
  endfacet
  facet normal 0 0 1
    outer loop
      vertex 17.2723 53.2919 3
      vertex 18.5418 51.8589 3
      vertex 30 40 3
    endloop
  endfacet
  facet normal 0 0 1
    outer loop
      vertex 19 50 3
      vertex 18.5418 48.1411 3
      vertex 30 40 3
    endloop
  endfacet
  facet normal 0 0 1
    outer loop
      vertex 13.5816 46.2599 3
      vertex 0 40 3
      vertex 15.4821 46.0292 3
    endloop
  endfacet
  facet normal 0 0 1
    outer loop
      vertex 12.006 47.3475 3
      vertex 0 40 3
      vertex 13.5816 46.2599 3
    endloop
  endfacet
  facet normal 0 0 1
    outer loop
      vertex 11.1162 49.0427 3
      vertex 0 40 3
      vertex 12.006 47.3475 3
    endloop
  endfacet
  facet normal 0 0 1
    outer loop
      vertex 17.2723 46.7081 3
      vertex 15.4821 46.0292 3
      vertex 30 40 3
    endloop
  endfacet
  facet normal 0 0 1
    outer loop
      vertex 11.1162 50.9573 3
      vertex 12.006 52.6525 3
      vertex 0 60 3
    endloop
  endfacet
  facet normal 0 0 1
    outer loop
      vertex 18.5418 48.1411 3
      vertex 17.2723 46.7081 3
      vertex 30 40 3
    endloop
  endfacet
  facet normal 0 1 0
    outer loop
      vertex 30 40 6
      vertex 30 40 3
      vertex 6 40 6
    endloop
  endfacet
  facet normal 0 1 0
    outer loop
      vertex 30 40 16
      vertex 0 40 25
      vertex 30 40 25
    endloop
  endfacet
  facet normal 0 1 0
    outer loop
      vertex 0 40 3
      vertex 0 40 25
      vertex 6 40 16
    endloop
  endfacet
  facet normal 0 1 0
    outer loop
      vertex 0 40 3
      vertex 6 40 16
      vertex 6 40 6
    endloop
  endfacet
  facet normal 0 1 0
    outer loop
      vertex 0 40 3
      vertex 6 40 6
      vertex 30 40 3
    endloop
  endfacet
  facet normal 0 1 0
    outer loop
      vertex 6 40 16
      vertex 0 40 25
      vertex 30 40 16
    endloop
  endfacet
  facet normal 0 0 1
    outer loop
      vertex 0 40 25
      vertex 0 0 25
      vertex 30 0 25
    endloop
  endfacet
  facet normal 0 0 1
    outer loop
      vertex 30 40 25
      vertex 0 40 25
      vertex 30 0 25
    endloop
  endfacet
  facet normal 0 -1 0
    outer loop
      vertex 6 0 6
      vertex 0 0 3
      vertex 30 0 3
    endloop
  endfacet
  facet normal 0 -1 0
    outer loop
      vertex 0 0 25
      vertex 0 0 3
      vertex 6 0 6
    endloop
  endfacet
  facet normal 0 -1 0
    outer loop
      vertex 6 0 16
      vertex 30 0 16
      vertex 0 0 25
    endloop
  endfacet
  facet normal 0 -1 0
    outer loop
      vertex 0 0 25
      vertex 6 0 6
      vertex 6 0 16
    endloop
  endfacet
  facet normal 0 -1 0
    outer loop
      vertex 30 0 25
      vertex 0 0 25
      vertex 30 0 16
    endloop
  endfacet
  facet normal 0 -1 0
    outer loop
      vertex 30 0 6
      vertex 6 0 6
      vertex 30 0 3
    endloop
  endfacet
  facet normal 0 0 1
    outer loop
      vertex 15.4821 -13.9708 3
      vertex 0 -20 3
      vertex 30 -20 3
    endloop
  endfacet
  facet normal 0 0 1
    outer loop
      vertex 0 0 3
      vertex 0 -20 3
      vertex 11.1162 -10.9573 3
    endloop
  endfacet
  facet normal 0 0 1
    outer loop
      vertex 13.5816 -6.25993 3
      vertex 15.4821 -6.02916 3
      vertex 30 0 3
    endloop
  endfacet
  facet normal 0 0 1
    outer loop
      vertex 0 0 3
      vertex 11.1162 -10.9573 3
      vertex 11.1162 -9.04274 3
    endloop
  endfacet
  facet normal 0 0 1
    outer loop
      vertex 13.5816 -6.25993 3
      vertex 0 0 3
      vertex 12.006 -7.34751 3
    endloop
  endfacet
  facet normal 0 0 1
    outer loop
      vertex 18.5418 -8.14111 3
      vertex 19 -10 3
      vertex 30 -20 3
    endloop
  endfacet
  facet normal 0 0 1
    outer loop
      vertex 30 0 3
      vertex 0 0 3
      vertex 13.5816 -6.25993 3
    endloop
  endfacet
  facet normal 0 0 1
    outer loop
      vertex 30 0 3
      vertex 17.2723 -6.70806 3
      vertex 30 -20 3
    endloop
  endfacet
  facet normal 0 0 1
    outer loop
      vertex 30 0 3
      vertex 15.4821 -6.02916 3
      vertex 17.2723 -6.70806 3
    endloop
  endfacet
  facet normal 0 0 1
    outer loop
      vertex 17.2723 -6.70806 3
      vertex 18.5418 -8.14111 3
      vertex 30 -20 3
    endloop
  endfacet
  facet normal 0 0 1
    outer loop
      vertex 19 -10 3
      vertex 18.5418 -11.8589 3
      vertex 30 -20 3
    endloop
  endfacet
  facet normal 0 0 1
    outer loop
      vertex 13.5816 -13.7401 3
      vertex 0 -20 3
      vertex 15.4821 -13.9708 3
    endloop
  endfacet
  facet normal 0 0 1
    outer loop
      vertex 12.006 -12.6525 3
      vertex 0 -20 3
      vertex 13.5816 -13.7401 3
    endloop
  endfacet
  facet normal 0 0 1
    outer loop
      vertex 11.1162 -10.9573 3
      vertex 0 -20 3
      vertex 12.006 -12.6525 3
    endloop
  endfacet
  facet normal 0 0 1
    outer loop
      vertex 17.2723 -13.2919 3
      vertex 15.4821 -13.9708 3
      vertex 30 -20 3
    endloop
  endfacet
  facet normal 0 0 1
    outer loop
      vertex 11.1162 -9.04274 3
      vertex 12.006 -7.34751 3
      vertex 0 0 3
    endloop
  endfacet
  facet normal 0 0 1
    outer loop
      vertex 18.5418 -11.8589 3
      vertex 17.2723 -13.2919 3
      vertex 30 -20 3
    endloop
  endfacet
  facet normal 1 0 0
    outer loop
      vertex 30 -20 3
      vertex 30 -20 0
      vertex 30 3 0
    endloop
  endfacet
  facet normal 1 0 0
    outer loop
      vertex 30 0 3
      vertex 30 -20 3
      vertex 30 3 0
    endloop
  endfacet
  facet normal 1 0 0
    outer loop
      vertex 30 3 6
      vertex 30 0 3
      vertex 30 3 0
    endloop
  endfacet
  facet normal 1 0 0
    outer loop
      vertex 30 0 6
      vertex 30 0 3
      vertex 30 3 6
    endloop
  endfacet
  facet normal 0 1 0
    outer loop
      vertex 30 3 6
      vertex 30 3 0
      vertex 6 3 6
    endloop
  endfacet
  facet normal 0 1 0
    outer loop
      vertex 30 3 16
      vertex 3 3 22
      vertex 30 3 22
    endloop
  endfacet
  facet normal 0 1 0
    outer loop
      vertex 3 3 0
      vertex 3 3 22
      vertex 6 3 16
    endloop
  endfacet
  facet normal 0 1 0
    outer loop
      vertex 3 3 0
      vertex 6 3 16
      vertex 6 3 6
    endloop
  endfacet
  facet normal 0 1 0
    outer loop
      vertex 3 3 0
      vertex 6 3 6
      vertex 30 3 0
    endloop
  endfacet
  facet normal 0 1 0
    outer loop
      vertex 6 3 16
      vertex 3 3 22
      vertex 30 3 16
    endloop
  endfacet
  facet normal 1 0 0
    outer loop
      vertex 3 3 22
      vertex 3 3 0
      vertex 3 37 0
    endloop
  endfacet
  facet normal 1 0 0
    outer loop
      vertex 3 37 22
      vertex 3 3 22
      vertex 3 37 0
    endloop
  endfacet
  facet normal 0 -1 0
    outer loop
      vertex 6 37 6
      vertex 3 37 0
      vertex 30 37 0
    endloop
  endfacet
  facet normal 0 -1 0
    outer loop
      vertex 3 37 22
      vertex 3 37 0
      vertex 6 37 6
    endloop
  endfacet
  facet normal 0 -1 0
    outer loop
      vertex 6 37 16
      vertex 30 37 16
      vertex 3 37 22
    endloop
  endfacet
  facet normal 0 -1 0
    outer loop
      vertex 3 37 22
      vertex 6 37 6
      vertex 6 37 16
    endloop
  endfacet
  facet normal 0 -1 0
    outer loop
      vertex 30 37 22
      vertex 3 37 22
      vertex 30 37 16
    endloop
  endfacet
  facet normal 0 -1 0
    outer loop
      vertex 30 37 6
      vertex 6 37 6
      vertex 30 37 0
    endloop
  endfacet
  facet normal 1 0 0
    outer loop
      vertex 30 40 3
      vertex 30 37 0
      vertex 30 60 0
    endloop
  endfacet
  facet normal 1 0 0
    outer loop
      vertex 30 40 3
      vertex 30 40 6
      vertex 30 37 6
    endloop
  endfacet
  facet normal 1 0 0
    outer loop
      vertex 30 37 6
      vertex 30 37 0
      vertex 30 40 3
    endloop
  endfacet
  facet normal 1 0 0
    outer loop
      vertex 30 60 3
      vertex 30 40 3
      vertex 30 60 0
    endloop
  endfacet
  facet normal 1 0 0
    outer loop
      vertex 11.1162 -9.04274 0
      vertex 11.1162 -9.04274 3
      vertex 11.1162 -10.9573 3
    endloop
  endfacet
  facet normal 1 0 0
    outer loop
      vertex 11.1162 -10.9573 0
      vertex 11.1162 -9.04274 0
      vertex 11.1162 -10.9573 3
    endloop
  endfacet
  facet normal 0.885456 -0.464723 0
    outer loop
      vertex 12.006 -7.34751 0
      vertex 12.006 -7.34751 3
      vertex 11.1162 -9.04274 3
    endloop
  endfacet
  facet normal 0.885456 -0.464723 0
    outer loop
      vertex 11.1162 -9.04274 0
      vertex 12.006 -7.34751 0
      vertex 11.1162 -9.04274 3
    endloop
  endfacet
  facet normal 0.568065 -0.822984 0
    outer loop
      vertex 13.5816 -6.25993 0
      vertex 13.5816 -6.25993 3
      vertex 12.006 -7.34751 3
    endloop
  endfacet
  facet normal 0.568065 -0.822984 0
    outer loop
      vertex 12.006 -7.34751 0
      vertex 13.5816 -6.25993 0
      vertex 12.006 -7.34751 3
    endloop
  endfacet
  facet normal 0.120536 -0.992709 0
    outer loop
      vertex 15.4821 -6.02916 0
      vertex 15.4821 -6.02916 3
      vertex 13.5816 -6.25993 3
    endloop
  endfacet
  facet normal 0.120536 -0.992709 0
    outer loop
      vertex 13.5816 -6.25993 0
      vertex 15.4821 -6.02916 0
      vertex 13.5816 -6.25993 3
    endloop
  endfacet
  facet normal -0.354605 -0.935016 0
    outer loop
      vertex 17.2723 -6.70806 0
      vertex 17.2723 -6.70806 3
      vertex 15.4821 -6.02916 3
    endloop
  endfacet
  facet normal -0.354605 -0.935016 0
    outer loop
      vertex 15.4821 -6.02916 0
      vertex 17.2723 -6.70806 0
      vertex 15.4821 -6.02916 3
    endloop
  endfacet
  facet normal -0.748511 -0.663123 0
    outer loop
      vertex 18.5418 -8.14111 3
      vertex 17.2723 -6.70806 3
      vertex 18.5418 -8.14111 0
    endloop
  endfacet
  facet normal -0.748511 -0.663123 0
    outer loop
      vertex 18.5418 -8.14111 0
      vertex 17.2723 -6.70806 3
      vertex 17.2723 -6.70806 0
    endloop
  endfacet
  facet normal -0.970942 -0.239316 0
    outer loop
      vertex 19 -10 3
      vertex 18.5418 -8.14111 3
      vertex 19 -10 0
    endloop
  endfacet
  facet normal -0.970942 -0.239316 0
    outer loop
      vertex 19 -10 0
      vertex 18.5418 -8.14111 3
      vertex 18.5418 -8.14111 0
    endloop
  endfacet
  facet normal -0.970942 0.239316 0
    outer loop
      vertex 19 -10 3
      vertex 19 -10 0
      vertex 18.5418 -11.8589 3
    endloop
  endfacet
  facet normal -0.970942 0.239316 0
    outer loop
      vertex 18.5418 -11.8589 3
      vertex 19 -10 0
      vertex 18.5418 -11.8589 0
    endloop
  endfacet
  facet normal -0.748511 0.663123 0
    outer loop
      vertex 18.5418 -11.8589 3
      vertex 18.5418 -11.8589 0
      vertex 17.2723 -13.2919 3
    endloop
  endfacet
  facet normal -0.748511 0.663123 0
    outer loop
      vertex 17.2723 -13.2919 3
      vertex 18.5418 -11.8589 0
      vertex 17.2723 -13.2919 0
    endloop
  endfacet
  facet normal -0.354605 0.935016 0
    outer loop
      vertex 17.2723 -13.2919 3
      vertex 17.2723 -13.2919 0
      vertex 15.4821 -13.9708 3
    endloop
  endfacet
  facet normal -0.354605 0.935016 0
    outer loop
      vertex 15.4821 -13.9708 3
      vertex 17.2723 -13.2919 0
      vertex 15.4821 -13.9708 0
    endloop
  endfacet
  facet normal 0.120536 0.992709 0
    outer loop
      vertex 15.4821 -13.9708 3
      vertex 15.4821 -13.9708 0
      vertex 13.5816 -13.7401 3
    endloop
  endfacet
  facet normal 0.120536 0.992709 0
    outer loop
      vertex 13.5816 -13.7401 3
      vertex 15.4821 -13.9708 0
      vertex 13.5816 -13.7401 0
    endloop
  endfacet
  facet normal 0.568065 0.822984 0
    outer loop
      vertex 13.5816 -13.7401 3
      vertex 13.5816 -13.7401 0
      vertex 12.006 -12.6525 3
    endloop
  endfacet
  facet normal 0.568065 0.822984 0
    outer loop
      vertex 12.006 -12.6525 3
      vertex 13.5816 -13.7401 0
      vertex 12.006 -12.6525 0
    endloop
  endfacet
  facet normal 0.885456 0.464723 0
    outer loop
      vertex 11.1162 -10.9573 3
      vertex 12.006 -12.6525 3
      vertex 12.006 -12.6525 0
    endloop
  endfacet
  facet normal 0.885456 0.464723 0
    outer loop
      vertex 11.1162 -10.9573 0
      vertex 11.1162 -10.9573 3
      vertex 12.006 -12.6525 0
    endloop
  endfacet
  facet normal 1 0 0
    outer loop
      vertex 11.1162 50.9573 0
      vertex 11.1162 50.9573 3
      vertex 11.1162 49.0427 3
    endloop
  endfacet
  facet normal 1 0 0
    outer loop
      vertex 11.1162 49.0427 0
      vertex 11.1162 50.9573 0
      vertex 11.1162 49.0427 3
    endloop
  endfacet
  facet normal 0.885456 -0.464723 0
    outer loop
      vertex 12.006 52.6525 0
      vertex 12.006 52.6525 3
      vertex 11.1162 50.9573 3
    endloop
  endfacet
  facet normal 0.885456 -0.464723 0
    outer loop
      vertex 11.1162 50.9573 0
      vertex 12.006 52.6525 0
      vertex 11.1162 50.9573 3
    endloop
  endfacet
  facet normal 0.568065 -0.822984 0
    outer loop
      vertex 13.5816 53.7401 0
      vertex 13.5816 53.7401 3
      vertex 12.006 52.6525 3
    endloop
  endfacet
  facet normal 0.568065 -0.822984 0
    outer loop
      vertex 12.006 52.6525 0
      vertex 13.5816 53.7401 0
      vertex 12.006 52.6525 3
    endloop
  endfacet
  facet normal 0.120536 -0.992709 0
    outer loop
      vertex 15.4821 53.9708 0
      vertex 15.4821 53.9708 3
      vertex 13.5816 53.7401 3
    endloop
  endfacet
  facet normal 0.120536 -0.992709 0
    outer loop
      vertex 13.5816 53.7401 0
      vertex 15.4821 53.9708 0
      vertex 13.5816 53.7401 3
    endloop
  endfacet
  facet normal -0.354605 -0.935016 0
    outer loop
      vertex 17.2723 53.2919 0
      vertex 17.2723 53.2919 3
      vertex 15.4821 53.9708 3
    endloop
  endfacet
  facet normal -0.354605 -0.935016 0
    outer loop
      vertex 15.4821 53.9708 0
      vertex 17.2723 53.2919 0
      vertex 15.4821 53.9708 3
    endloop
  endfacet
  facet normal -0.748511 -0.663123 0
    outer loop
      vertex 18.5418 51.8589 3
      vertex 17.2723 53.2919 3
      vertex 18.5418 51.8589 0
    endloop
  endfacet
  facet normal -0.748511 -0.663123 0
    outer loop
      vertex 18.5418 51.8589 0
      vertex 17.2723 53.2919 3
      vertex 17.2723 53.2919 0
    endloop
  endfacet
  facet normal -0.970942 -0.239316 0
    outer loop
      vertex 19 50 3
      vertex 18.5418 51.8589 3
      vertex 19 50 0
    endloop
  endfacet
  facet normal -0.970942 -0.239316 0
    outer loop
      vertex 19 50 0
      vertex 18.5418 51.8589 3
      vertex 18.5418 51.8589 0
    endloop
  endfacet
  facet normal -0.970942 0.239316 0
    outer loop
      vertex 19 50 3
      vertex 19 50 0
      vertex 18.5418 48.1411 3
    endloop
  endfacet
  facet normal -0.970942 0.239316 0
    outer loop
      vertex 18.5418 48.1411 3
      vertex 19 50 0
      vertex 18.5418 48.1411 0
    endloop
  endfacet
  facet normal -0.748511 0.663123 0
    outer loop
      vertex 18.5418 48.1411 3
      vertex 18.5418 48.1411 0
      vertex 17.2723 46.7081 3
    endloop
  endfacet
  facet normal -0.748511 0.663123 0
    outer loop
      vertex 17.2723 46.7081 3
      vertex 18.5418 48.1411 0
      vertex 17.2723 46.7081 0
    endloop
  endfacet
  facet normal -0.354605 0.935016 0
    outer loop
      vertex 17.2723 46.7081 3
      vertex 17.2723 46.7081 0
      vertex 15.4821 46.0292 3
    endloop
  endfacet
  facet normal -0.354605 0.935016 0
    outer loop
      vertex 15.4821 46.0292 3
      vertex 17.2723 46.7081 0
      vertex 15.4821 46.0292 0
    endloop
  endfacet
  facet normal 0.120536 0.992709 0
    outer loop
      vertex 15.4821 46.0292 3
      vertex 15.4821 46.0292 0
      vertex 13.5816 46.2599 3
    endloop
  endfacet
  facet normal 0.120536 0.992709 0
    outer loop
      vertex 13.5816 46.2599 3
      vertex 15.4821 46.0292 0
      vertex 13.5816 46.2599 0
    endloop
  endfacet
  facet normal 0.568065 0.822984 0
    outer loop
      vertex 13.5816 46.2599 3
      vertex 13.5816 46.2599 0
      vertex 12.006 47.3475 3
    endloop
  endfacet
  facet normal 0.568065 0.822984 0
    outer loop
      vertex 12.006 47.3475 3
      vertex 13.5816 46.2599 0
      vertex 12.006 47.3475 0
    endloop
  endfacet
  facet normal 0.885456 0.464723 0
    outer loop
      vertex 11.1162 49.0427 3
      vertex 12.006 47.3475 3
      vertex 12.006 47.3475 0
    endloop
  endfacet
  facet normal 0.885456 0.464723 0
    outer loop
      vertex 11.1162 49.0427 0
      vertex 11.1162 49.0427 3
      vertex 12.006 47.3475 0
    endloop
  endfacet
  facet normal 0 0 1
    outer loop
      vertex 30 37 6
      vertex 30 40 6
      vertex 6 40 6
    endloop
  endfacet
  facet normal 0 0 1
    outer loop
      vertex 6 37 6
      vertex 30 37 6
      vertex 6 40 6
    endloop
  endfacet
  facet normal 1 0 0
    outer loop
      vertex 6 40 6
      vertex 6 40 16
      vertex 6 37 16
    endloop
  endfacet
  facet normal 1 0 0
    outer loop
      vertex 6 37 6
      vertex 6 40 6
      vertex 6 37 16
    endloop
  endfacet
  facet normal 0 0 -1
    outer loop
      vertex 30 40 16
      vertex 30 37 16
      vertex 6 40 16
    endloop
  endfacet
  facet normal 0 0 -1
    outer loop
      vertex 6 40 16
      vertex 30 37 16
      vertex 6 37 16
    endloop
  endfacet
  facet normal 1 0 0
    outer loop
      vertex 30 0 25
      vertex 30 0 16
      vertex 30 3 16
    endloop
  endfacet
  facet normal 1 0 0
    outer loop
      vertex 30 37 22
      vertex 30 0 25
      vertex 30 3 22
    endloop
  endfacet
  facet normal 1 0 0
    outer loop
      vertex 30 3 22
      vertex 30 0 25
      vertex 30 3 16
    endloop
  endfacet
  facet normal 1 0 0
    outer loop
      vertex 30 40 25
      vertex 30 0 25
      vertex 30 37 22
    endloop
  endfacet
  facet normal 1 0 0
    outer loop
      vertex 30 40 16
      vertex 30 37 22
      vertex 30 37 16
    endloop
  endfacet
  facet normal 1 0 0
    outer loop
      vertex 30 40 25
      vertex 30 37 22
      vertex 30 40 16
    endloop
  endfacet
  facet normal 0 0 -1
    outer loop
      vertex 30 3 16
      vertex 30 0 16
      vertex 6 3 16
    endloop
  endfacet
  facet normal 0 0 -1
    outer loop
      vertex 6 3 16
      vertex 30 0 16
      vertex 6 0 16
    endloop
  endfacet
  facet normal 1 0 0
    outer loop
      vertex 6 3 6
      vertex 6 3 16
      vertex 6 0 16
    endloop
  endfacet
  facet normal 1 0 0
    outer loop
      vertex 6 0 6
      vertex 6 3 6
      vertex 6 0 16
    endloop
  endfacet
  facet normal 0 0 1
    outer loop
      vertex 30 0 6
      vertex 30 3 6
      vertex 6 3 6
    endloop
  endfacet
  facet normal 0 0 1
    outer loop
      vertex 6 0 6
      vertex 30 0 6
      vertex 6 3 6
    endloop
  endfacet
  facet normal 0 0 -1
    outer loop
      vertex 3 3 22
      vertex 3 37 22
      vertex 30 3 22
    endloop
  endfacet
  facet normal 0 0 -1
    outer loop
      vertex 30 3 22
      vertex 3 37 22
      vertex 30 37 22
    endloop
  endfacet
endsolid OpenSCAD_Model
