solid OpenSCAD_Model
  facet normal -1 0 0
    outer loop
      vertex 0 -20 0
      vertex 0 -20 3
      vertex 0 70 0
    endloop
  endfacet
  facet normal -1 0 0
    outer loop
      vertex 0 70 0
      vertex 0 -20 3
      vertex 0 0 3
    endloop
  endfacet
  facet normal -1 0 0
    outer loop
      vertex 0 50 3
      vertex 0 0 3
      vertex 0 0 20
    endloop
  endfacet
  facet normal -1 0 0
    outer loop
      vertex 0 70 0
      vertex 0 0 3
      vertex 0 50 3
    endloop
  endfacet
  facet normal -1 0 0
    outer loop
      vertex 0 70 3
      vertex 0 70 0
      vertex 0 50 3
    endloop
  endfacet
  facet normal -1 0 0
    outer loop
      vertex 0 50 3
      vertex 0 0 20
      vertex 0 50 20
    endloop
  endfacet
  facet normal 0 -1 0
    outer loop
      vertex 0 -20 3
      vertex 0 -20 0
      vertex 30 -20 0
    endloop
  endfacet
  facet normal 0 -1 0
    outer loop
      vertex 30 -20 3
      vertex 0 -20 3
      vertex 30 -20 0
    endloop
  endfacet
  facet normal 0 0 -1
    outer loop
      vertex 30 3 0
      vertex 30 -20 0
      vertex 19 -10 0
    endloop
  endfacet
  facet normal 0 0 -1
    outer loop
      vertex 17 63.4641 0
      vertex 0 70 0
      vertex 30 70 0
    endloop
  endfacet
  facet normal 0 0 -1
    outer loop
      vertex 0 -20 0
      vertex 0 70 0
      vertex 3 47 0
    endloop
  endfacet
  facet normal 0 0 -1
    outer loop
      vertex 0 -20 0
      vertex 3 47 0
      vertex 3 3 0
    endloop
  endfacet
  facet normal 0 0 -1
    outer loop
      vertex 30 3 0
      vertex 19 -10 0
      vertex 17 -6.5359 0
    endloop
  endfacet
  facet normal 0 0 -1
    outer loop
      vertex 0 -20 0
      vertex 3 3 0
      vertex 11 -10 0
    endloop
  endfacet
  facet normal 0 0 -1
    outer loop
      vertex 0 -20 0
      vertex 11 -10 0
      vertex 13 -13.4641 0
    endloop
  endfacet
  facet normal 0 0 -1
    outer loop
      vertex 0 -20 0
      vertex 13 -13.4641 0
      vertex 30 -20 0
    endloop
  endfacet
  facet normal 0 0 -1
    outer loop
      vertex 13 -13.4641 0
      vertex 17 -13.4641 0
      vertex 30 -20 0
    endloop
  endfacet
  facet normal 0 0 -1
    outer loop
      vertex 11 60 0
      vertex 0 70 0
      vertex 13 63.4641 0
    endloop
  endfacet
  facet normal 0 0 -1
    outer loop
      vertex 13 -6.5359 0
      vertex 3 3 0
      vertex 17 -6.5359 0
    endloop
  endfacet
  facet normal 0 0 -1
    outer loop
      vertex 11 -10 0
      vertex 3 3 0
      vertex 13 -6.5359 0
    endloop
  endfacet
  facet normal 0 0 -1
    outer loop
      vertex 30 3 0
      vertex 17 -6.5359 0
      vertex 3 3 0
    endloop
  endfacet
  facet normal 0 0 -1
    outer loop
      vertex 17 56.5359 0
      vertex 30 47 0
      vertex 13 56.5359 0
    endloop
  endfacet
  facet normal 0 0 -1
    outer loop
      vertex 19 60 0
      vertex 30 47 0
      vertex 17 56.5359 0
    endloop
  endfacet
  facet normal 0 0 -1
    outer loop
      vertex 30 47 0
      vertex 19 60 0
      vertex 30 70 0
    endloop
  endfacet
  facet normal 0 0 -1
    outer loop
      vertex 13 63.4641 0
      vertex 0 70 0
      vertex 17 63.4641 0
    endloop
  endfacet
  facet normal 0 0 -1
    outer loop
      vertex 19 60 0
      vertex 17 63.4641 0
      vertex 30 70 0
    endloop
  endfacet
  facet normal 0 0 -1
    outer loop
      vertex 3 47 0
      vertex 0 70 0
      vertex 11 60 0
    endloop
  endfacet
  facet normal 0 0 -1
    outer loop
      vertex 3 47 0
      vertex 11 60 0
      vertex 13 56.5359 0
    endloop
  endfacet
  facet normal 0 0 -1
    outer loop
      vertex 3 47 0
      vertex 13 56.5359 0
      vertex 30 47 0
    endloop
  endfacet
  facet normal 0 0 -1
    outer loop
      vertex 19 -10 0
      vertex 30 -20 0
      vertex 17 -13.4641 0
    endloop
  endfacet
  facet normal 0 1 0
    outer loop
      vertex 0 70 0
      vertex 0 70 3
      vertex 30 70 0
    endloop
  endfacet
  facet normal 0 1 0
    outer loop
      vertex 30 70 0
      vertex 0 70 3
      vertex 30 70 3
    endloop
  endfacet
  facet normal 0 0 1
    outer loop
      vertex 13 56.5359 3
      vertex 0 50 3
      vertex 30 50 3
    endloop
  endfacet
  facet normal 0 0 1
    outer loop
      vertex 17 56.5359 3
      vertex 13 56.5359 3
      vertex 30 50 3
    endloop
  endfacet
  facet normal 0 0 1
    outer loop
      vertex 0 70 3
      vertex 0 50 3
      vertex 13 56.5359 3
    endloop
  endfacet
  facet normal 0 0 1
    outer loop
      vertex 0 70 3
      vertex 13 56.5359 3
      vertex 11 60 3
    endloop
  endfacet
  facet normal 0 0 1
    outer loop
      vertex 30 70 3
      vertex 0 70 3
      vertex 13 63.4641 3
    endloop
  endfacet
  facet normal 0 0 1
    outer loop
      vertex 30 70 3
      vertex 17 63.4641 3
      vertex 30 50 3
    endloop
  endfacet
  facet normal 0 0 1
    outer loop
      vertex 30 70 3
      vertex 13 63.4641 3
      vertex 17 63.4641 3
    endloop
  endfacet
  facet normal 0 0 1
    outer loop
      vertex 17 63.4641 3
      vertex 19 60 3
      vertex 30 50 3
    endloop
  endfacet
  facet normal 0 0 1
    outer loop
      vertex 11 60 3
      vertex 13 63.4641 3
      vertex 0 70 3
    endloop
  endfacet
  facet normal 0 0 1
    outer loop
      vertex 19 60 3
      vertex 17 56.5359 3
      vertex 30 50 3
    endloop
  endfacet
  facet normal 0 1 0
    outer loop
      vertex 30 50 6
      vertex 30 50 3
      vertex 6 50 6
    endloop
  endfacet
  facet normal 0 1 0
    outer loop
      vertex 30 50 14
      vertex 0 50 20
      vertex 30 50 20
    endloop
  endfacet
  facet normal 0 1 0
    outer loop
      vertex 0 50 3
      vertex 0 50 20
      vertex 6 50 14
    endloop
  endfacet
  facet normal 0 1 0
    outer loop
      vertex 0 50 3
      vertex 6 50 14
      vertex 6 50 6
    endloop
  endfacet
  facet normal 0 1 0
    outer loop
      vertex 0 50 3
      vertex 6 50 6
      vertex 30 50 3
    endloop
  endfacet
  facet normal 0 1 0
    outer loop
      vertex 6 50 14
      vertex 0 50 20
      vertex 30 50 14
    endloop
  endfacet
  facet normal 0 0 1
    outer loop
      vertex 0 50 20
      vertex 0 0 20
      vertex 30 0 20
    endloop
  endfacet
  facet normal 0 0 1
    outer loop
      vertex 30 50 20
      vertex 0 50 20
      vertex 30 0 20
    endloop
  endfacet
  facet normal 0 -1 0
    outer loop
      vertex 6 0 6
      vertex 0 0 3
      vertex 30 0 3
    endloop
  endfacet
  facet normal 0 -1 0
    outer loop
      vertex 0 0 20
      vertex 0 0 3
      vertex 6 0 6
    endloop
  endfacet
  facet normal 0 -1 0
    outer loop
      vertex 6 0 14
      vertex 30 0 14
      vertex 0 0 20
    endloop
  endfacet
  facet normal 0 -1 0
    outer loop
      vertex 0 0 20
      vertex 6 0 6
      vertex 6 0 14
    endloop
  endfacet
  facet normal 0 -1 0
    outer loop
      vertex 30 0 20
      vertex 0 0 20
      vertex 30 0 14
    endloop
  endfacet
  facet normal 0 -1 0
    outer loop
      vertex 30 0 6
      vertex 6 0 6
      vertex 30 0 3
    endloop
  endfacet
  facet normal 0 0 1
    outer loop
      vertex 13 -13.4641 3
      vertex 0 -20 3
      vertex 30 -20 3
    endloop
  endfacet
  facet normal 0 0 1
    outer loop
      vertex 17 -13.4641 3
      vertex 13 -13.4641 3
      vertex 30 -20 3
    endloop
  endfacet
  facet normal 0 0 1
    outer loop
      vertex 0 0 3
      vertex 0 -20 3
      vertex 13 -13.4641 3
    endloop
  endfacet
  facet normal 0 0 1
    outer loop
      vertex 0 0 3
      vertex 13 -13.4641 3
      vertex 11 -10 3
    endloop
  endfacet
  facet normal 0 0 1
    outer loop
      vertex 30 0 3
      vertex 0 0 3
      vertex 13 -6.5359 3
    endloop
  endfacet
  facet normal 0 0 1
    outer loop
      vertex 30 0 3
      vertex 17 -6.5359 3
      vertex 30 -20 3
    endloop
  endfacet
  facet normal 0 0 1
    outer loop
      vertex 30 0 3
      vertex 13 -6.5359 3
      vertex 17 -6.5359 3
    endloop
  endfacet
  facet normal 0 0 1
    outer loop
      vertex 17 -6.5359 3
      vertex 19 -10 3
      vertex 30 -20 3
    endloop
  endfacet
  facet normal 0 0 1
    outer loop
      vertex 11 -10 3
      vertex 13 -6.5359 3
      vertex 0 0 3
    endloop
  endfacet
  facet normal 0 0 1
    outer loop
      vertex 19 -10 3
      vertex 17 -13.4641 3
      vertex 30 -20 3
    endloop
  endfacet
  facet normal 1 0 0
    outer loop
      vertex 30 -20 3
      vertex 30 -20 0
      vertex 30 3 0
    endloop
  endfacet
  facet normal 1 0 0
    outer loop
      vertex 30 0 3
      vertex 30 -20 3
      vertex 30 3 0
    endloop
  endfacet
  facet normal 1 0 0
    outer loop
      vertex 30 3 6
      vertex 30 0 3
      vertex 30 3 0
    endloop
  endfacet
  facet normal 1 0 0
    outer loop
      vertex 30 0 6
      vertex 30 0 3
      vertex 30 3 6
    endloop
  endfacet
  facet normal 0 1 0
    outer loop
      vertex 30 3 6
      vertex 30 3 0
      vertex 6 3 6
    endloop
  endfacet
  facet normal 0 1 0
    outer loop
      vertex 30 3 14
      vertex 3 3 17
      vertex 30 3 17
    endloop
  endfacet
  facet normal 0 1 0
    outer loop
      vertex 3 3 0
      vertex 3 3 17
      vertex 6 3 14
    endloop
  endfacet
  facet normal 0 1 0
    outer loop
      vertex 3 3 0
      vertex 6 3 14
      vertex 6 3 6
    endloop
  endfacet
  facet normal 0 1 0
    outer loop
      vertex 3 3 0
      vertex 6 3 6
      vertex 30 3 0
    endloop
  endfacet
  facet normal 0 1 0
    outer loop
      vertex 6 3 14
      vertex 3 3 17
      vertex 30 3 14
    endloop
  endfacet
  facet normal 1 0 0
    outer loop
      vertex 3 3 17
      vertex 3 3 0
      vertex 3 47 0
    endloop
  endfacet
  facet normal 1 0 0
    outer loop
      vertex 3 47 17
      vertex 3 3 17
      vertex 3 47 0
    endloop
  endfacet
  facet normal 0 -1 0
    outer loop
      vertex 6 47 6
      vertex 3 47 0
      vertex 30 47 0
    endloop
  endfacet
  facet normal 0 -1 0
    outer loop
      vertex 3 47 17
      vertex 3 47 0
      vertex 6 47 6
    endloop
  endfacet
  facet normal 0 -1 0
    outer loop
      vertex 6 47 14
      vertex 30 47 14
      vertex 3 47 17
    endloop
  endfacet
  facet normal 0 -1 0
    outer loop
      vertex 3 47 17
      vertex 6 47 6
      vertex 6 47 14
    endloop
  endfacet
  facet normal 0 -1 0
    outer loop
      vertex 30 47 17
      vertex 3 47 17
      vertex 30 47 14
    endloop
  endfacet
  facet normal 0 -1 0
    outer loop
      vertex 30 47 6
      vertex 6 47 6
      vertex 30 47 0
    endloop
  endfacet
  facet normal 1 0 0
    outer loop
      vertex 30 50 3
      vertex 30 47 0
      vertex 30 70 0
    endloop
  endfacet
  facet normal 1 0 0
    outer loop
      vertex 30 50 3
      vertex 30 50 6
      vertex 30 47 6
    endloop
  endfacet
  facet normal 1 0 0
    outer loop
      vertex 30 47 6
      vertex 30 47 0
      vertex 30 50 3
    endloop
  endfacet
  facet normal 1 0 0
    outer loop
      vertex 30 70 3
      vertex 30 50 3
      vertex 30 70 0
    endloop
  endfacet
  facet normal 0.866025 -0.5 0
    outer loop
      vertex 13 -6.5359 0
      vertex 13 -6.5359 3
      vertex 11 -10 3
    endloop
  endfacet
  facet normal 0.866025 -0.5 0
    outer loop
      vertex 11 -10 0
      vertex 13 -6.5359 0
      vertex 11 -10 3
    endloop
  endfacet
  facet normal 0.866025 0.5 0
    outer loop
      vertex 11 -10 3
      vertex 13 -13.4641 3
      vertex 13 -13.4641 0
    endloop
  endfacet
  facet normal 0.866025 0.5 0
    outer loop
      vertex 11 -10 0
      vertex 11 -10 3
      vertex 13 -13.4641 0
    endloop
  endfacet
  facet normal 0 -1 0
    outer loop
      vertex 17 -6.5359 0
      vertex 17 -6.5359 3
      vertex 13 -6.5359 3
    endloop
  endfacet
  facet normal 0 -1 0
    outer loop
      vertex 13 -6.5359 0
      vertex 17 -6.5359 0
      vertex 13 -6.5359 3
    endloop
  endfacet
  facet normal -0.866025 -0.5 0
    outer loop
      vertex 19 -10 3
      vertex 17 -6.5359 3
      vertex 19 -10 0
    endloop
  endfacet
  facet normal -0.866025 -0.5 0
    outer loop
      vertex 19 -10 0
      vertex 17 -6.5359 3
      vertex 17 -6.5359 0
    endloop
  endfacet
  facet normal -0.866025 0.5 0
    outer loop
      vertex 19 -10 3
      vertex 19 -10 0
      vertex 17 -13.4641 3
    endloop
  endfacet
  facet normal -0.866025 0.5 0
    outer loop
      vertex 17 -13.4641 3
      vertex 19 -10 0
      vertex 17 -13.4641 0
    endloop
  endfacet
  facet normal 0 1 0
    outer loop
      vertex 17 -13.4641 3
      vertex 17 -13.4641 0
      vertex 13 -13.4641 3
    endloop
  endfacet
  facet normal 0 1 0
    outer loop
      vertex 13 -13.4641 3
      vertex 17 -13.4641 0
      vertex 13 -13.4641 0
    endloop
  endfacet
  facet normal 0.866025 -0.5 0
    outer loop
      vertex 13 63.4641 0
      vertex 13 63.4641 3
      vertex 11 60 3
    endloop
  endfacet
  facet normal 0.866025 -0.5 0
    outer loop
      vertex 11 60 0
      vertex 13 63.4641 0
      vertex 11 60 3
    endloop
  endfacet
  facet normal 0.866025 0.5 0
    outer loop
      vertex 11 60 3
      vertex 13 56.5359 3
      vertex 13 56.5359 0
    endloop
  endfacet
  facet normal 0.866025 0.5 0
    outer loop
      vertex 11 60 0
      vertex 11 60 3
      vertex 13 56.5359 0
    endloop
  endfacet
  facet normal 0 -1 0
    outer loop
      vertex 17 63.4641 0
      vertex 17 63.4641 3
      vertex 13 63.4641 3
    endloop
  endfacet
  facet normal 0 -1 0
    outer loop
      vertex 13 63.4641 0
      vertex 17 63.4641 0
      vertex 13 63.4641 3
    endloop
  endfacet
  facet normal -0.866025 -0.5 0
    outer loop
      vertex 19 60 3
      vertex 17 63.4641 3
      vertex 19 60 0
    endloop
  endfacet
  facet normal -0.866025 -0.5 0
    outer loop
      vertex 19 60 0
      vertex 17 63.4641 3
      vertex 17 63.4641 0
    endloop
  endfacet
  facet normal -0.866025 0.5 0
    outer loop
      vertex 19 60 3
      vertex 19 60 0
      vertex 17 56.5359 3
    endloop
  endfacet
  facet normal -0.866025 0.5 0
    outer loop
      vertex 17 56.5359 3
      vertex 19 60 0
      vertex 17 56.5359 0
    endloop
  endfacet
  facet normal 0 1 0
    outer loop
      vertex 17 56.5359 3
      vertex 17 56.5359 0
      vertex 13 56.5359 3
    endloop
  endfacet
  facet normal 0 1 0
    outer loop
      vertex 13 56.5359 3
      vertex 17 56.5359 0
      vertex 13 56.5359 0
    endloop
  endfacet
  facet normal 0 0 1
    outer loop
      vertex 30 47 6
      vertex 30 50 6
      vertex 6 50 6
    endloop
  endfacet
  facet normal 0 0 1
    outer loop
      vertex 6 47 6
      vertex 30 47 6
      vertex 6 50 6
    endloop
  endfacet
  facet normal 1 0 0
    outer loop
      vertex 6 50 6
      vertex 6 50 14
      vertex 6 47 14
    endloop
  endfacet
  facet normal 1 0 0
    outer loop
      vertex 6 47 6
      vertex 6 50 6
      vertex 6 47 14
    endloop
  endfacet
  facet normal 0 0 -1
    outer loop
      vertex 30 50 14
      vertex 30 47 14
      vertex 6 50 14
    endloop
  endfacet
  facet normal 0 0 -1
    outer loop
      vertex 6 50 14
      vertex 30 47 14
      vertex 6 47 14
    endloop
  endfacet
  facet normal 1 0 0
    outer loop
      vertex 30 0 20
      vertex 30 0 14
      vertex 30 3 14
    endloop
  endfacet
  facet normal 1 0 0
    outer loop
      vertex 30 47 17
      vertex 30 0 20
      vertex 30 3 17
    endloop
  endfacet
  facet normal 1 0 0
    outer loop
      vertex 30 3 17
      vertex 30 0 20
      vertex 30 3 14
    endloop
  endfacet
  facet normal 1 0 0
    outer loop
      vertex 30 50 20
      vertex 30 0 20
      vertex 30 47 17
    endloop
  endfacet
  facet normal 1 0 0
    outer loop
      vertex 30 50 14
      vertex 30 47 17
      vertex 30 47 14
    endloop
  endfacet
  facet normal 1 0 0
    outer loop
      vertex 30 50 20
      vertex 30 47 17
      vertex 30 50 14
    endloop
  endfacet
  facet normal 0 0 -1
    outer loop
      vertex 30 3 14
      vertex 30 0 14
      vertex 6 3 14
    endloop
  endfacet
  facet normal 0 0 -1
    outer loop
      vertex 6 3 14
      vertex 30 0 14
      vertex 6 0 14
    endloop
  endfacet
  facet normal 1 0 0
    outer loop
      vertex 6 3 6
      vertex 6 3 14
      vertex 6 0 14
    endloop
  endfacet
  facet normal 1 0 0
    outer loop
      vertex 6 0 6
      vertex 6 3 6
      vertex 6 0 14
    endloop
  endfacet
  facet normal 0 0 1
    outer loop
      vertex 30 0 6
      vertex 30 3 6
      vertex 6 3 6
    endloop
  endfacet
  facet normal 0 0 1
    outer loop
      vertex 6 0 6
      vertex 30 0 6
      vertex 6 3 6
    endloop
  endfacet
  facet normal 0 0 -1
    outer loop
      vertex 3 3 17
      vertex 3 47 17
      vertex 30 3 17
    endloop
  endfacet
  facet normal 0 0 -1
    outer loop
      vertex 30 3 17
      vertex 3 47 17
      vertex 30 47 17
    endloop
  endfacet
endsolid OpenSCAD_Model
